<svg xmlns="http://www.w3.org/2000/svg" xmlns:xlink="http://www.w3.org/1999/xlink" width="150" zoomAndPan="magnify" viewBox="0 0 112.5 141.000003" height="188" preserveAspectRatio="xMidYMid meet" version="1.0"><defs><g/><clipPath id="a2649dd093"><path d="M 0.148438 0 L 111.855469 0 L 111.855469 111.707031 L 0.148438 111.707031 Z M 0.148438 0 " clip-rule="nonzero"/></clipPath><clipPath id="3df05988f7"><path d="M 56 0 C 25.15625 0 0.148438 25.007812 0.148438 55.855469 C 0.148438 86.699219 25.15625 111.707031 56 111.707031 C 86.847656 111.707031 111.855469 86.699219 111.855469 55.855469 C 111.855469 25.007812 86.847656 0 56 0 Z M 56 0 " clip-rule="nonzero"/></clipPath><clipPath id="cddabf2a82"><path d="M 15 25.082031 L 97 25.082031 L 97 98.8125 L 15 98.8125 Z M 15 25.082031 " clip-rule="nonzero"/></clipPath></defs><g clip-path="url(#a2649dd093)"><g clip-path="url(#3df05988f7)"><path fill="#adf7b9" d="M 0.148438 0 L 111.855469 0 L 111.855469 111.707031 L 0.148438 111.707031 Z M 0.148438 0 " fill-opacity="1" fill-rule="nonzero"/></g></g><g clip-path="url(#cddabf2a82)"><path fill="#c6302c" d="M 96.910156 47.574219 C 96.910156 35.109375 86.804688 25.003906 74.34375 25.003906 C 66.773438 25.003906 60.097656 28.738281 56 34.449219 C 51.90625 28.738281 45.226562 25.003906 37.664062 25.003906 C 25.199219 25.003906 15.09375 35.105469 15.09375 47.574219 C 15.09375 49.339844 15.316406 51.050781 15.699219 52.703125 C 18.835938 72.171875 40.484375 92.714844 56 98.355469 C 71.515625 92.714844 93.167969 72.171875 96.296875 52.703125 C 96.6875 51.054688 96.910156 49.34375 96.910156 47.574219 Z M 96.910156 47.574219 " fill-opacity="1" fill-rule="nonzero"/></g><g fill="#000000" fill-opacity="1"><g transform="translate(17.667382, 128.538392)"><g><path d="M 10.21875 -12.71875 L 1.515625 -12.71875 L 1.515625 0 L 3.171875 0 L 3.171875 -5.828125 L 9 -5.828125 L 9 -7.265625 L 3.171875 -7.265625 L 3.171875 -11.265625 L 10.21875 -11.265625 Z M 10.21875 -12.71875 "/></g></g></g><g fill="#000000" fill-opacity="1"><g transform="translate(27.526831, 128.538392)"><g><path d="M 9.5625 -1.21875 C 8.953125 -1.21875 8.75 -1.40625 8.75 -2.015625 L 8.75 -6.515625 C 8.75 -8.53125 7.421875 -9.46875 5.140625 -9.46875 C 2.765625 -9.46875 1.46875 -8.5 1.296875 -6.46875 L 2.921875 -6.46875 C 3.03125 -7.703125 3.703125 -8.109375 5.015625 -8.109375 C 6.453125 -8.109375 7.09375 -7.640625 7.09375 -6.671875 L 7.09375 -6.328125 C 7.09375 -5.890625 6.875 -5.671875 6.421875 -5.625 L 4.078125 -5.328125 C 1.84375 -5.03125 0.921875 -3.96875 0.921875 -2.453125 C 0.921875 -0.75 2.140625 0.234375 4.015625 0.234375 C 5.59375 0.234375 6.765625 -0.46875 7.359375 -1.359375 C 7.421875 -0.453125 7.96875 0 8.953125 0 L 9.828125 0 L 9.828125 -1.21875 Z M 4.328125 -1.03125 C 3.25 -1.03125 2.546875 -1.578125 2.546875 -2.515625 C 2.546875 -3.34375 3.046875 -3.90625 4.34375 -4.109375 L 7.09375 -4.515625 L 7.09375 -3.234375 C 7.09375 -2.046875 5.796875 -1.03125 4.328125 -1.03125 Z M 4.328125 -1.03125 "/></g></g></g><g fill="#000000" fill-opacity="1"><g transform="translate(37.439985, 128.538392)"><g><path d="M 5.578125 -3.890625 L 4.828125 -1.40625 L 4.046875 -3.890625 L 2.21875 -9.21875 L 0.453125 -9.21875 L 3.984375 0 L 5.609375 0 L 8.984375 -9.21875 L 7.328125 -9.21875 Z M 5.578125 -3.890625 "/></g></g></g><g fill="#000000" fill-opacity="1"><g transform="translate(46.513625, 128.538392)"><g><path d="M 5.328125 0.234375 C 7.90625 0.234375 9.765625 -1.78125 9.765625 -4.671875 C 9.765625 -7.609375 7.953125 -9.453125 5.375 -9.453125 C 2.734375 -9.453125 0.890625 -7.578125 0.890625 -4.609375 C 0.890625 -1.71875 2.671875 0.234375 5.328125 0.234375 Z M 5.328125 -1.140625 C 3.59375 -1.140625 2.53125 -2.515625 2.53125 -4.609375 C 2.53125 -6.703125 3.578125 -8.078125 5.328125 -8.078125 C 7.109375 -8.078125 8.125 -6.765625 8.125 -4.671875 C 8.125 -2.59375 7.109375 -1.140625 5.328125 -1.140625 Z M 5.328125 -1.140625 "/></g></g></g><g fill="#000000" fill-opacity="1"><g transform="translate(57.177031, 128.538392)"><g><path d="M 5.796875 -9.46875 C 4.40625 -9.46875 3.515625 -8.6875 2.96875 -7.453125 L 2.96875 -9.21875 L 1.421875 -9.21875 L 1.421875 0 L 3.078125 0 L 3.078125 -5.03125 C 3.140625 -6.90625 4.5 -7.859375 5.71875 -7.859375 C 5.875 -7.859375 6.046875 -7.859375 6.296875 -7.84375 L 6.296875 -9.4375 C 6.140625 -9.453125 5.984375 -9.46875 5.796875 -9.46875 Z M 5.796875 -9.46875 "/></g></g></g><g fill="#000000" fill-opacity="1"><g transform="translate(63.750122, 128.538392)"><g><path d="M 3.078125 -10.953125 L 3.078125 -12.71875 L 1.421875 -12.71875 L 1.421875 -10.953125 Z M 3.078125 0 L 3.078125 -9.21875 L 1.421875 -9.21875 L 1.421875 0 Z M 3.078125 0 "/></g></g></g><g fill="#000000" fill-opacity="1"><g transform="translate(68.251261, 128.538392)"><g><path d="M 5.84375 -7.953125 L 5.84375 -9.21875 L 3.734375 -9.140625 L 3.734375 -12.03125 L 2.09375 -12.03125 L 2.09375 -9.15625 L 0.71875 -9.21875 L 0.71875 -7.953125 L 2.09375 -8.015625 L 2.09375 -2.046875 C 2.09375 -0.625 2.71875 0 4.140625 0 L 5.828125 0 L 5.828125 -1.375 L 4.625 -1.375 C 3.953125 -1.375 3.734375 -1.59375 3.734375 -2.265625 L 3.734375 -8.015625 Z M 5.84375 -7.953125 "/></g></g></g><g fill="#000000" fill-opacity="1"><g transform="translate(74.627866, 128.538392)"><g><path d="M 5.328125 0.234375 C 7.90625 0.234375 9.765625 -1.78125 9.765625 -4.671875 C 9.765625 -7.609375 7.953125 -9.453125 5.375 -9.453125 C 2.734375 -9.453125 0.890625 -7.578125 0.890625 -4.609375 C 0.890625 -1.71875 2.671875 0.234375 5.328125 0.234375 Z M 5.328125 -1.140625 C 3.59375 -1.140625 2.53125 -2.515625 2.53125 -4.609375 C 2.53125 -6.703125 3.578125 -8.078125 5.328125 -8.078125 C 7.109375 -8.078125 8.125 -6.765625 8.125 -4.671875 C 8.125 -2.59375 7.109375 -1.140625 5.328125 -1.140625 Z M 5.328125 -1.140625 "/></g></g></g><g fill="#000000" fill-opacity="1"><g transform="translate(85.291271, 128.538392)"><g><path d="M 4.53125 0.234375 C 6.96875 0.234375 8.390625 -0.875 8.390625 -2.671875 C 8.390625 -4.015625 7.59375 -4.859375 5.671875 -5.28125 L 3.890625 -5.671875 C 2.796875 -5.90625 2.46875 -6.328125 2.46875 -6.90625 C 2.46875 -7.734375 3.15625 -8.125 4.328125 -8.125 C 5.625 -8.125 6.328125 -7.59375 6.5 -6.53125 L 8.125 -6.609375 C 7.859375 -8.53125 6.421875 -9.4375 4.375 -9.4375 C 2.109375 -9.4375 0.953125 -8.375 0.953125 -6.765625 C 0.953125 -5.46875 1.71875 -4.640625 3.5 -4.265625 L 5.359375 -3.875 C 6.328125 -3.671875 6.828125 -3.265625 6.828125 -2.53125 C 6.828125 -1.65625 6.109375 -1.09375 4.609375 -1.09375 C 3.203125 -1.09375 2.421875 -1.625 2.265625 -2.90625 L 0.71875 -2.84375 C 0.921875 -0.78125 2.234375 0.234375 4.53125 0.234375 Z M 4.53125 0.234375 "/></g></g></g></svg>