<svg xmlns="http://www.w3.org/2000/svg" xmlns:xlink="http://www.w3.org/1999/xlink" width="571" zoomAndPan="magnify" viewBox="0 0 428.25 206.249992" height="275" preserveAspectRatio="xMidYMid meet" version="1.0"><defs><g/><clipPath id="8ffa75e209"><path d="M 233.5625 139 L 327 139 L 327 165.707031 L 233.5625 165.707031 Z M 233.5625 139 " clip-rule="nonzero"/></clipPath><clipPath id="dbd64687f7"><path d="M 334 139 L 427 139 L 427 165.707031 L 334 165.707031 Z M 334 139 " clip-rule="nonzero"/></clipPath><clipPath id="cd889a9504"><path d="M 330 115.640625 L 418 115.640625 L 418 163 L 330 163 Z M 330 115.640625 " clip-rule="nonzero"/></clipPath><clipPath id="0b1c2f29e9"><path d="M 242 115.640625 L 331 115.640625 L 331 163 L 242 163 Z M 242 115.640625 " clip-rule="nonzero"/></clipPath><clipPath id="37195f3a96"><path d="M 332 38.070312 L 371.644531 38.070312 L 371.644531 122.351562 L 332 122.351562 Z M 332 38.070312 " clip-rule="nonzero"/></clipPath><clipPath id="504aa0de62"><path d="M 287.949219 38.070312 L 327.738281 38.070312 L 327.738281 122.351562 L 287.949219 122.351562 Z M 287.949219 38.070312 " clip-rule="nonzero"/></clipPath></defs><g clip-path="url(#8ffa75e209)"><path fill="#62d670" d="M 233.714844 141.054688 L 239.160156 155.429688 C 239.160156 155.429688 296.160156 138.097656 326.582031 165.476562 C 326.582031 165.476562 305.765625 131.597656 233.714844 141.054688 " fill-opacity="1" fill-rule="nonzero"/></g><g clip-path="url(#dbd64687f7)"><path fill="#62d670" d="M 426.933594 141.054688 L 421.488281 155.429688 C 421.488281 155.429688 364.488281 138.097656 334.066406 165.476562 C 334.066406 165.476562 354.882812 131.597656 426.933594 141.054688 " fill-opacity="1" fill-rule="nonzero"/></g><g clip-path="url(#cd889a9504)"><path fill="#adf7b9" d="M 343.570312 147.945312 L 343.304688 147.011719 C 363.273438 131.28125 397.675781 126.582031 397.675781 126.582031 L 395.363281 115.640625 C 350.8125 127.941406 337.402344 145.820312 333.371094 155.144531 C 333.085938 155.796875 332.851562 156.410156 332.652344 156.976562 L 330.347656 162.855469 C 330.332031 162.894531 330.324219 162.914062 330.324219 162.914062 L 333.398438 159.601562 C 358.609375 135.21875 416.285156 137.835938 416.285156 137.835938 L 417.773438 125.21875 C 377.679688 128.609375 355.539062 138.949219 343.570312 147.945312 " fill-opacity="1" fill-rule="nonzero"/></g><g clip-path="url(#0b1c2f29e9)"><path fill="#adf7b9" d="M 317.074219 147.945312 L 317.34375 147.011719 C 297.371094 131.28125 262.972656 126.582031 262.972656 126.582031 L 265.28125 115.640625 C 309.835938 127.941406 323.246094 145.820312 327.277344 155.144531 C 327.5625 155.796875 327.796875 156.410156 327.996094 156.976562 L 330.300781 162.855469 C 330.316406 162.894531 330.324219 162.914062 330.324219 162.914062 L 327.246094 159.601562 C 302.039062 135.21875 244.359375 137.835938 244.359375 137.835938 L 242.875 125.21875 C 282.96875 128.609375 305.109375 138.949219 317.074219 147.945312 " fill-opacity="1" fill-rule="nonzero"/></g><g clip-path="url(#37195f3a96)"><path fill="#62d670" d="M 345.703125 89.507812 C 346.128906 89.507812 346.503906 89.195312 346.570312 88.757812 C 346.640625 88.277344 346.3125 87.832031 345.832031 87.757812 C 342.511719 87.261719 340.679688 81.183594 340.253906 78.882812 C 340.164062 78.40625 339.707031 78.089844 339.230469 78.179688 C 338.753906 78.265625 338.4375 78.726562 338.527344 79.203125 C 338.597656 79.589844 340.335938 88.710938 345.570312 89.496094 C 345.617188 89.503906 345.660156 89.507812 345.703125 89.507812 Z M 344.648438 55.710938 C 348.402344 55.710938 350.101562 53.90625 350.199219 53.800781 C 350.519531 53.445312 350.496094 52.902344 350.144531 52.574219 C 349.792969 52.246094 349.238281 52.265625 348.90625 52.613281 C 348.804688 52.71875 346.378906 55.167969 340.382812 53.199219 C 339.730469 52.371094 338.886719 51.617188 337.804688 51.035156 C 337.378906 50.804688 336.847656 50.964844 336.617188 51.394531 C 336.386719 51.820312 336.550781 52.351562 336.976562 52.582031 C 340.933594 54.703125 340.902344 60.085938 340.902344 60.136719 C 340.894531 60.621094 341.28125 61.019531 341.765625 61.027344 C 341.769531 61.027344 341.777344 61.027344 341.78125 61.027344 C 342.257812 61.027344 342.648438 60.648438 342.65625 60.167969 C 342.660156 60.011719 342.679688 57.738281 341.660156 55.371094 C 342.773438 55.613281 343.765625 55.710938 344.648438 55.710938 Z M 351.191406 105.617188 C 351.199219 105.617188 351.203125 105.617188 351.207031 105.617188 C 351.691406 105.609375 352.078125 105.207031 352.070312 104.722656 C 352.070312 104.671875 352.023438 99.367188 355.925781 97.207031 C 357.460938 96.695312 359.019531 95.855469 360.597656 94.691406 C 360.988281 94.402344 361.070312 93.851562 360.78125 93.464844 C 360.496094 93.074219 359.945312 92.992188 359.554688 93.277344 C 356.546875 95.496094 353.679688 96.390625 351.027344 95.933594 C 347.4375 95.316406 345.410156 92.375 345.375 92.328125 C 345.105469 91.925781 344.5625 91.816406 344.160156 92.085938 C 343.757812 92.355469 343.648438 92.898438 343.914062 93.300781 C 344.015625 93.449219 346.355469 96.898438 350.703125 97.660156 C 351.265625 97.757812 351.832031 97.808594 352.402344 97.808594 C 352.460938 97.808594 352.519531 97.808594 352.574219 97.804688 C 350.277344 100.730469 350.3125 104.550781 350.316406 104.753906 C 350.324219 105.234375 350.714844 105.617188 351.191406 105.617188 Z M 349.441406 83.894531 C 349.921875 83.894531 350.3125 83.511719 350.320312 83.03125 C 350.324219 82.828125 350.355469 79.007812 348.058594 76.082031 C 348.117188 76.085938 348.175781 76.085938 348.234375 76.085938 C 348.804688 76.085938 349.371094 76.035156 349.933594 75.9375 C 354.277344 75.175781 356.621094 71.726562 356.71875 71.582031 C 356.988281 71.179688 356.878906 70.636719 356.476562 70.363281 C 356.074219 70.097656 355.53125 70.203125 355.257812 70.605469 C 355.238281 70.636719 353.207031 73.59375 349.605469 74.210938 C 348.242188 74.449219 346.824219 74.324219 345.355469 73.847656 C 345.335938 73.84375 345.320312 73.835938 345.300781 73.832031 C 343.929688 73.378906 342.523438 72.621094 341.078125 71.554688 C 340.6875 71.265625 340.140625 71.351562 339.851562 71.742188 C 339.566406 72.132812 339.648438 72.679688 340.039062 72.96875 C 341.617188 74.132812 343.175781 74.972656 344.707031 75.488281 C 348.59375 77.636719 348.566406 82.949219 348.566406 83.003906 C 348.558594 83.488281 348.945312 83.886719 349.425781 83.894531 C 349.433594 83.894531 349.4375 83.894531 349.441406 83.894531 Z M 365.710938 93.019531 C 366.066406 93.019531 366.398438 92.804688 366.53125 92.453125 C 366.707031 92.003906 366.476562 91.496094 366.023438 91.320312 C 359.351562 88.777344 358.753906 84.515625 358.730469 84.320312 C 358.679688 83.84375 358.25 83.496094 357.769531 83.546875 C 357.285156 83.597656 356.9375 84.027344 356.984375 84.511719 C 357.007812 84.734375 357.640625 90.007812 365.398438 92.964844 C 365.503906 93.003906 365.609375 93.019531 365.710938 93.019531 Z M 341.960938 122.351562 C 336.515625 122.351562 332.082031 117.921875 332.082031 112.472656 L 332.082031 95.257812 C 333.839844 94.464844 336.644531 93.921875 337.929688 94.5625 C 340.796875 95.992188 341.792969 100.449219 341.804688 100.5 C 341.894531 100.914062 342.257812 101.195312 342.664062 101.195312 C 342.722656 101.195312 342.785156 101.1875 342.847656 101.175781 C 343.320312 101.074219 343.621094 100.605469 343.519531 100.132812 C 343.476562 99.914062 342.34375 94.808594 338.71875 92.996094 C 337.117188 92.195312 334.28125 92.542969 332.082031 93.359375 L 332.082031 66.65625 C 332.085938 66.964844 332.25 67.261719 332.539062 67.421875 C 334.375 68.433594 336.15625 68.941406 337.855469 68.941406 C 338.660156 68.941406 339.449219 68.824219 340.214844 68.597656 C 343.894531 67.5 345.699219 64.164062 345.777344 64.023438 C 346.003906 63.59375 345.839844 63.0625 345.414062 62.835938 C 344.984375 62.609375 344.453125 62.773438 344.226562 63.199219 C 344.210938 63.230469 342.695312 66.027344 339.714844 66.914062 C 337.796875 67.484375 335.667969 67.140625 333.382812 65.882812 C 332.960938 65.648438 332.425781 65.804688 332.191406 66.226562 C 332.121094 66.359375 332.085938 66.5 332.082031 66.644531 L 332.082031 47.949219 C 332.082031 42.503906 336.515625 38.070312 341.960938 38.070312 C 347.28125 38.070312 351.636719 42.300781 351.832031 47.574219 C 356.949219 48.136719 361.191406 51.914062 362.339844 56.929688 C 356.363281 57.207031 354.9375 62.105469 354.917969 62.164062 C 354.761719 62.625 355.011719 63.121094 355.46875 63.277344 C 355.5625 63.308594 355.65625 63.320312 355.75 63.320312 C 356.117188 63.320312 356.457031 63.089844 356.582031 62.722656 C 356.652344 62.511719 357.914062 57.894531 364.453125 58.785156 C 366.992188 61.0625 368.492188 64.328125 368.492188 67.835938 C 368.492188 70.433594 367.664062 72.941406 366.140625 75.015625 C 369.589844 76.625 371.828125 80.078125 371.828125 83.964844 C 371.828125 87.375 370.050781 90.535156 367.210938 92.324219 C 368.96875 94.15625 369.957031 96.585938 369.957031 99.160156 C 369.957031 103.171875 367.535156 106.765625 363.867188 108.285156 C 363.613281 113.519531 359.285156 117.6875 354 117.6875 C 353.355469 117.6875 352.722656 117.628906 352.097656 117.507812 C 351.433594 110.699219 345.015625 107.929688 344.734375 107.808594 C 344.285156 107.621094 343.769531 107.832031 343.582031 108.28125 C 343.394531 108.726562 343.605469 109.242188 344.054688 109.429688 C 344.113281 109.453125 349.773438 111.898438 350.351562 117.691406 C 348.566406 120.5625 345.417969 122.351562 341.960938 122.351562 " fill-opacity="1" fill-rule="evenodd"/></g><g clip-path="url(#504aa0de62)"><path fill="#adf7b9" d="M 314.074219 89.507812 C 313.644531 89.507812 313.269531 89.195312 313.207031 88.757812 C 313.132812 88.277344 313.464844 87.832031 313.945312 87.757812 C 317.265625 87.261719 319.097656 81.183594 319.523438 78.882812 C 319.609375 78.40625 320.066406 78.089844 320.546875 78.179688 C 321.023438 78.265625 321.335938 78.726562 321.25 79.203125 C 321.179688 79.589844 319.4375 88.710938 314.203125 89.496094 C 314.160156 89.503906 314.117188 89.507812 314.074219 89.507812 Z M 315.128906 55.710938 C 311.375 55.710938 309.671875 53.90625 309.578125 53.800781 C 309.253906 53.445312 309.28125 52.902344 309.632812 52.574219 C 309.984375 52.246094 310.539062 52.265625 310.871094 52.613281 C 310.972656 52.71875 313.398438 55.167969 319.394531 53.199219 C 320.046875 52.371094 320.886719 51.617188 321.96875 51.035156 C 322.398438 50.804688 322.929688 50.964844 323.15625 51.394531 C 323.386719 51.820312 323.226562 52.351562 322.800781 52.582031 C 318.84375 54.703125 318.871094 60.085938 318.871094 60.136719 C 318.882812 60.621094 318.496094 61.019531 318.011719 61.027344 C 318.003906 61.027344 318 61.027344 317.996094 61.027344 C 317.519531 61.027344 317.125 60.648438 317.117188 60.167969 C 317.113281 60.011719 317.09375 57.738281 318.113281 55.371094 C 317.003906 55.613281 316.011719 55.710938 315.128906 55.710938 Z M 308.582031 105.617188 C 308.578125 105.617188 308.574219 105.617188 308.566406 105.617188 C 308.082031 105.609375 307.695312 105.207031 307.707031 104.722656 C 307.707031 104.671875 307.753906 99.367188 303.847656 97.207031 C 302.316406 96.695312 300.757812 95.855469 299.179688 94.691406 C 298.789062 94.402344 298.707031 93.851562 298.992188 93.464844 C 299.28125 93.074219 299.832031 92.992188 300.222656 93.277344 C 303.226562 95.496094 306.097656 96.390625 308.75 95.933594 C 312.335938 95.316406 314.367188 92.375 314.398438 92.328125 C 314.667969 91.925781 315.214844 91.816406 315.617188 92.085938 C 316.019531 92.355469 316.128906 92.898438 315.859375 93.300781 C 315.761719 93.449219 313.417969 96.898438 309.074219 97.660156 C 308.511719 97.757812 307.945312 97.808594 307.375 97.808594 C 307.316406 97.808594 307.257812 97.808594 307.199219 97.804688 C 309.496094 100.730469 309.464844 104.550781 309.460938 104.753906 C 309.453125 105.234375 309.0625 105.617188 308.582031 105.617188 Z M 310.332031 83.894531 C 309.855469 83.894531 309.464844 83.511719 309.453125 83.03125 C 309.453125 82.828125 309.417969 79.007812 311.714844 76.082031 C 311.660156 76.085938 311.601562 76.085938 311.542969 76.085938 C 310.972656 76.085938 310.40625 76.035156 309.84375 75.9375 C 305.5 75.175781 303.15625 71.726562 303.058594 71.582031 C 302.789062 71.179688 302.898438 70.636719 303.300781 70.363281 C 303.699219 70.097656 304.246094 70.203125 304.515625 70.605469 C 304.535156 70.636719 306.570312 73.59375 310.167969 74.210938 C 311.53125 74.449219 312.953125 74.324219 314.421875 73.847656 C 314.4375 73.84375 314.457031 73.835938 314.476562 73.832031 C 315.84375 73.378906 317.253906 72.621094 318.695312 71.554688 C 319.085938 71.265625 319.636719 71.351562 319.921875 71.742188 C 320.210938 72.132812 320.128906 72.679688 319.738281 72.96875 C 318.160156 74.132812 316.597656 74.972656 315.066406 75.488281 C 311.183594 77.636719 311.210938 82.949219 311.210938 83.003906 C 311.21875 83.488281 310.832031 83.886719 310.347656 83.894531 C 310.34375 83.894531 310.339844 83.894531 310.332031 83.894531 Z M 294.0625 93.019531 C 293.710938 93.019531 293.375 92.804688 293.242188 92.453125 C 293.070312 92.003906 293.296875 91.496094 293.75 91.320312 C 300.425781 88.777344 301.019531 84.515625 301.042969 84.320312 C 301.097656 83.84375 301.527344 83.496094 302.007812 83.546875 C 302.492188 83.597656 302.839844 84.027344 302.789062 84.511719 C 302.765625 84.734375 302.132812 90.007812 294.375 92.964844 C 294.273438 93.003906 294.167969 93.019531 294.0625 93.019531 Z M 317.8125 122.351562 C 323.261719 122.351562 327.691406 117.921875 327.691406 112.472656 L 327.691406 95.257812 C 325.9375 94.464844 323.132812 93.921875 321.847656 94.5625 C 318.980469 95.992188 317.984375 100.449219 317.972656 100.5 C 317.882812 100.914062 317.519531 101.195312 317.113281 101.195312 C 317.054688 101.195312 316.992188 101.1875 316.929688 101.175781 C 316.453125 101.074219 316.152344 100.605469 316.253906 100.132812 C 316.300781 99.914062 317.433594 94.808594 321.058594 92.996094 C 322.65625 92.195312 325.492188 92.542969 327.691406 93.359375 L 327.691406 66.65625 C 327.691406 66.964844 327.527344 67.261719 327.238281 67.421875 C 325.398438 68.433594 323.621094 68.941406 321.921875 68.941406 C 321.113281 68.941406 320.328125 68.824219 319.558594 68.597656 C 315.882812 67.5 314.074219 64.164062 314 64.023438 C 313.773438 63.59375 313.9375 63.0625 314.363281 62.835938 C 314.792969 62.609375 315.324219 62.773438 315.550781 63.199219 C 315.566406 63.230469 317.078125 66.027344 320.0625 66.914062 C 321.980469 67.484375 324.109375 67.140625 326.390625 65.882812 C 326.816406 65.648438 327.351562 65.804688 327.582031 66.226562 C 327.65625 66.359375 327.691406 66.5 327.691406 66.644531 L 327.691406 47.949219 C 327.691406 42.503906 323.261719 38.070312 317.8125 38.070312 C 312.492188 38.070312 308.140625 42.300781 307.941406 47.574219 C 302.824219 48.136719 298.585938 51.914062 297.4375 56.929688 C 303.414062 57.207031 304.839844 62.105469 304.859375 62.164062 C 305.011719 62.625 304.765625 63.121094 304.304688 63.277344 C 304.214844 63.308594 304.117188 63.320312 304.027344 63.320312 C 303.660156 63.320312 303.316406 63.089844 303.195312 62.722656 C 303.125 62.511719 301.863281 57.894531 295.320312 58.785156 C 292.78125 61.0625 291.285156 64.328125 291.285156 67.835938 C 291.285156 70.433594 292.109375 72.941406 293.632812 75.015625 C 290.1875 76.625 287.949219 80.078125 287.949219 83.964844 C 287.949219 87.375 289.726562 90.535156 292.566406 92.324219 C 290.804688 94.15625 289.820312 96.585938 289.820312 99.160156 C 289.820312 103.171875 292.242188 106.765625 295.910156 108.285156 C 296.164062 113.519531 300.492188 117.6875 305.773438 117.6875 C 306.421875 117.6875 307.054688 117.628906 307.675781 117.507812 C 308.34375 110.699219 314.757812 107.929688 315.042969 107.808594 C 315.492188 107.621094 316.003906 107.832031 316.191406 108.28125 C 316.378906 108.726562 316.167969 109.242188 315.722656 109.429688 C 315.664062 109.453125 310 111.898438 309.421875 117.691406 C 311.207031 120.5625 314.359375 122.351562 317.8125 122.351562 " fill-opacity="1" fill-rule="evenodd"/></g><g fill="#62d670" fill-opacity="1"><g transform="translate(25.618168, 166.946577)"><g><path d="M 19.109375 0.890625 C 18.265625 0.941406 17.445312 0.890625 16.65625 0.734375 C 15.875 0.585938 15.085938 0.414062 14.296875 0.21875 C 12.617188 -0.21875 11.132812 -0.910156 9.84375 -1.859375 C 9.644531 -2.003906 9.421875 -2.148438 9.171875 -2.296875 C 8.929688 -2.441406 8.710938 -2.585938 8.515625 -2.734375 C 8.023438 -3.128906 7.554688 -3.523438 7.109375 -3.921875 C 6.421875 -4.566406 5.800781 -5.269531 5.25 -6.03125 C 4.707031 -6.800781 4.191406 -7.582031 3.703125 -8.375 C 3.554688 -8.613281 3.429688 -8.867188 3.328125 -9.140625 C 3.234375 -9.410156 3.132812 -9.671875 3.03125 -9.921875 C 2.882812 -10.367188 3.007812 -10.765625 3.40625 -11.109375 C 3.945312 -11.554688 4.488281 -12.035156 5.03125 -12.546875 C 5.570312 -13.066406 6.140625 -13.523438 6.734375 -13.921875 C 7.035156 -14.171875 7.320312 -14.414062 7.59375 -14.65625 C 7.863281 -14.90625 8.125 -15.15625 8.375 -15.40625 C 8.664062 -15.695312 9.054688 -15.894531 9.546875 -16 C 9.796875 -16.09375 9.984375 -16.066406 10.109375 -15.921875 C 10.234375 -15.773438 10.34375 -15.648438 10.4375 -15.546875 C 10.632812 -15.347656 10.804688 -15.140625 10.953125 -14.921875 C 11.109375 -14.703125 11.257812 -14.46875 11.40625 -14.21875 C 11.851562 -13.769531 12.285156 -13.3125 12.703125 -12.84375 C 13.117188 -12.375 13.597656 -11.992188 14.140625 -11.703125 C 14.335938 -11.597656 14.507812 -11.492188 14.65625 -11.390625 C 14.8125 -11.296875 14.988281 -11.203125 15.1875 -11.109375 C 15.675781 -10.910156 16.140625 -10.722656 16.578125 -10.546875 C 17.023438 -10.378906 17.5 -10.222656 18 -10.078125 C 18.832031 -9.773438 19.695312 -9.75 20.59375 -10 C 21.132812 -10.195312 21.660156 -10.40625 22.171875 -10.625 C 22.691406 -10.851562 23.148438 -11.160156 23.546875 -11.546875 C 24.734375 -12.640625 25.054688 -13.972656 24.515625 -15.546875 C 24.171875 -16.484375 23.550781 -17.25 22.65625 -17.84375 C 22.3125 -18.09375 21.941406 -18.351562 21.546875 -18.625 C 21.148438 -18.894531 20.757812 -19.128906 20.375 -19.328125 C 19.78125 -19.671875 19.195312 -20.015625 18.625 -20.359375 C 18.0625 -20.710938 17.429688 -20.988281 16.734375 -21.1875 C 16.335938 -21.332031 15.941406 -21.515625 15.546875 -21.734375 C 15.148438 -21.960938 14.757812 -22.171875 14.375 -22.359375 C 13.820312 -22.609375 13.351562 -22.859375 12.96875 -23.109375 C 12.519531 -23.453125 12.070312 -23.769531 11.625 -24.0625 C 11.1875 -24.363281 10.742188 -24.6875 10.296875 -25.03125 C 9.953125 -25.332031 9.601562 -25.640625 9.25 -25.953125 C 8.90625 -26.273438 8.535156 -26.585938 8.140625 -26.890625 C 7.742188 -27.285156 7.410156 -27.691406 7.140625 -28.109375 C 6.867188 -28.523438 6.613281 -28.984375 6.375 -29.484375 C 6.125 -30.023438 5.882812 -30.601562 5.65625 -31.21875 C 5.4375 -31.832031 5.28125 -32.4375 5.1875 -33.03125 C 4.488281 -36.488281 4.859375 -39.820312 6.296875 -43.03125 C 6.640625 -43.875 7.054688 -44.640625 7.546875 -45.328125 C 8.046875 -46.015625 8.539062 -46.707031 9.03125 -47.40625 C 9.625 -48.144531 10.28125 -48.785156 11 -49.328125 C 11.71875 -49.867188 12.46875 -50.382812 13.25 -50.875 C 13.5 -51.03125 13.734375 -51.164062 13.953125 -51.28125 C 14.179688 -51.40625 14.394531 -51.519531 14.59375 -51.625 C 15.582031 -52.164062 16.617188 -52.507812 17.703125 -52.65625 C 18.785156 -52.800781 19.867188 -52.898438 20.953125 -52.953125 C 22.285156 -52.953125 23.546875 -52.78125 24.734375 -52.4375 C 25.523438 -52.238281 26.289062 -51.976562 27.03125 -51.65625 C 27.769531 -51.332031 28.460938 -50.898438 29.109375 -50.359375 C 29.648438 -50.015625 30.179688 -49.628906 30.703125 -49.203125 C 31.222656 -48.785156 31.675781 -48.304688 32.0625 -47.765625 C 32.363281 -47.421875 32.660156 -47.085938 32.953125 -46.765625 C 33.253906 -46.453125 33.503906 -46.097656 33.703125 -45.703125 C 34.046875 -44.953125 33.96875 -44.257812 33.46875 -43.625 C 33.125 -43.125 32.765625 -42.648438 32.390625 -42.203125 C 32.023438 -41.765625 31.644531 -41.300781 31.25 -40.8125 C 31.050781 -40.5625 30.816406 -40.300781 30.546875 -40.03125 C 30.273438 -39.757812 30.015625 -39.5 29.765625 -39.25 C 29.523438 -39.007812 29.242188 -38.847656 28.921875 -38.765625 C 28.597656 -38.691406 28.238281 -38.65625 27.84375 -38.65625 C 27.800781 -38.65625 27.738281 -38.679688 27.65625 -38.734375 C 27.582031 -38.785156 27.5 -38.835938 27.40625 -38.890625 C 27.15625 -39.128906 26.894531 -39.347656 26.625 -39.546875 C 26.351562 -39.742188 26.09375 -39.941406 25.84375 -40.140625 C 25.300781 -40.734375 24.5625 -41.15625 23.625 -41.40625 C 22.832031 -41.644531 22.039062 -41.773438 21.25 -41.796875 C 20.46875 -41.828125 19.679688 -41.796875 18.890625 -41.703125 C 18.242188 -41.703125 17.578125 -41.40625 16.890625 -40.8125 C 16.191406 -40.3125 15.742188 -39.742188 15.546875 -39.109375 C 15.398438 -38.410156 15.351562 -37.789062 15.40625 -37.25 C 15.5 -36.507812 15.796875 -35.84375 16.296875 -35.25 C 16.734375 -34.65625 17.375 -34.113281 18.21875 -33.625 C 18.757812 -33.28125 19.335938 -32.929688 19.953125 -32.578125 C 20.578125 -32.234375 21.160156 -31.890625 21.703125 -31.546875 C 21.847656 -31.453125 22.003906 -31.378906 22.171875 -31.328125 C 22.347656 -31.273438 22.507812 -31.203125 22.65625 -31.109375 C 23.207031 -30.859375 23.753906 -30.609375 24.296875 -30.359375 C 24.835938 -30.117188 25.351562 -29.847656 25.84375 -29.546875 C 26.382812 -29.304688 26.890625 -29.0625 27.359375 -28.8125 C 27.828125 -28.5625 28.285156 -28.238281 28.734375 -27.84375 C 28.984375 -27.644531 29.226562 -27.445312 29.46875 -27.25 C 29.71875 -27.050781 29.941406 -26.851562 30.140625 -26.65625 C 30.335938 -26.507812 30.5 -26.347656 30.625 -26.171875 C 30.75 -26.003906 30.910156 -25.875 31.109375 -25.78125 C 31.546875 -25.425781 31.960938 -25.050781 32.359375 -24.65625 C 32.753906 -24.269531 33.078125 -23.800781 33.328125 -23.25 C 33.421875 -23.007812 33.539062 -22.765625 33.6875 -22.515625 C 33.84375 -22.265625 33.96875 -22.019531 34.0625 -21.78125 C 34.21875 -21.332031 34.378906 -20.875 34.546875 -20.40625 C 34.722656 -19.9375 34.835938 -19.476562 34.890625 -19.03125 C 35.578125 -15.53125 35.203125 -12.175781 33.765625 -8.96875 C 33.421875 -8.175781 33.015625 -7.421875 32.546875 -6.703125 C 32.078125 -5.984375 31.570312 -5.28125 31.03125 -4.59375 C 30.488281 -3.851562 29.847656 -3.222656 29.109375 -2.703125 C 28.367188 -2.179688 27.628906 -1.648438 26.890625 -1.109375 C 26.691406 -1.015625 26.476562 -0.90625 26.25 -0.78125 C 26.03125 -0.65625 25.796875 -0.519531 25.546875 -0.375 C 24.515625 0.125 23.46875 0.457031 22.40625 0.625 C 21.34375 0.800781 20.242188 0.890625 19.109375 0.890625 Z M 19.109375 0.890625 "/></g></g></g><g fill="#dfb2f4" fill-opacity="1"><g transform="translate(60.60555, 166.946577)"><g><path d="M 19.921875 -23.78125 C 19.921875 -21.0625 19.90625 -18.367188 19.875 -15.703125 C 19.851562 -13.035156 19.820312 -10.34375 19.78125 -7.625 C 19.78125 -6.4375 19.753906 -5.25 19.703125 -4.0625 C 19.648438 -2.882812 19.597656 -1.703125 19.546875 -0.515625 C 19.546875 -0.078125 19.273438 0.238281 18.734375 0.4375 C 17.796875 0.632812 16.867188 0.757812 15.953125 0.8125 C 15.046875 0.863281 14.097656 0.816406 13.109375 0.671875 C 12.910156 0.617188 12.695312 0.59375 12.46875 0.59375 C 12.25 0.59375 12.039062 0.566406 11.84375 0.515625 C 10.90625 0.367188 10.4375 -0.144531 10.4375 -1.03125 L 10.4375 -8.59375 C 10.4375 -10.613281 10.410156 -12.625 10.359375 -14.625 C 10.316406 -16.625 10.320312 -18.632812 10.375 -20.65625 C 10.375 -22.488281 10.410156 -24.328125 10.484375 -26.171875 C 10.554688 -28.023438 10.640625 -29.867188 10.734375 -31.703125 C 10.835938 -32.984375 10.890625 -34.265625 10.890625 -35.546875 C 10.890625 -36.828125 10.890625 -38.085938 10.890625 -39.328125 C 10.890625 -39.867188 10.890625 -40.375 10.890625 -40.84375 C 10.890625 -41.3125 10.863281 -41.796875 10.8125 -42.296875 C 10.8125 -42.535156 10.796875 -42.664062 10.765625 -42.6875 C 10.742188 -42.71875 10.613281 -42.734375 10.375 -42.734375 C 9.132812 -42.734375 7.894531 -42.734375 6.65625 -42.734375 C 5.425781 -42.734375 4.171875 -42.6875 2.890625 -42.59375 L 2.21875 -42.59375 C 1.925781 -42.59375 1.726562 -42.785156 1.625 -43.171875 C 1.582031 -43.472656 1.546875 -43.769531 1.515625 -44.0625 C 1.492188 -44.363281 1.484375 -44.6875 1.484375 -45.03125 C 1.484375 -46.113281 1.503906 -47.1875 1.546875 -48.25 C 1.597656 -49.3125 1.675781 -50.382812 1.78125 -51.46875 C 1.832031 -52.0625 2.148438 -52.382812 2.734375 -52.4375 C 3.628906 -52.488281 4.53125 -52.523438 5.4375 -52.546875 C 6.351562 -52.566406 7.253906 -52.554688 8.140625 -52.515625 C 10.910156 -52.316406 13.675781 -52.203125 16.4375 -52.171875 C 19.207031 -52.148438 21.972656 -52.164062 24.734375 -52.21875 C 25.429688 -52.21875 26.113281 -52.226562 26.78125 -52.25 C 27.445312 -52.269531 28.097656 -52.28125 28.734375 -52.28125 C 29.128906 -52.28125 29.390625 -52.21875 29.515625 -52.09375 C 29.640625 -51.976562 29.703125 -51.722656 29.703125 -51.328125 C 29.742188 -50.335938 29.726562 -49.335938 29.65625 -48.328125 C 29.582031 -47.316406 29.523438 -46.289062 29.484375 -45.25 L 29.484375 -43.765625 C 29.429688 -43.171875 29.132812 -42.851562 28.59375 -42.8125 L 28.140625 -42.8125 C 27.109375 -42.90625 26.070312 -42.925781 25.03125 -42.875 C 24 -42.832031 22.988281 -42.785156 22 -42.734375 L 20.8125 -42.734375 C 20.5625 -42.734375 20.4375 -42.609375 20.4375 -42.359375 L 20.4375 -41.765625 C 20.4375 -40.679688 20.445312 -39.582031 20.46875 -38.46875 C 20.5 -37.363281 20.488281 -36.269531 20.4375 -35.1875 C 20.394531 -33.351562 20.347656 -31.546875 20.296875 -29.765625 C 20.242188 -27.992188 20.171875 -26.21875 20.078125 -24.4375 C 20.023438 -24.289062 20 -24.070312 20 -23.78125 Z M 19.921875 -23.78125 "/></g></g></g><g fill="#549de0" fill-opacity="1"><g transform="translate(90.093343, 166.946577)"><g><path d="M 3.625 -24.953125 C 3.726562 -29.054688 3.800781 -32.894531 3.84375 -36.46875 C 3.894531 -40.050781 3.945312 -43.570312 4 -47.03125 C 4 -47.570312 3.984375 -48.101562 3.953125 -48.625 C 3.929688 -49.144531 3.921875 -49.648438 3.921875 -50.140625 C 3.921875 -50.234375 3.90625 -50.34375 3.875 -50.46875 C 3.851562 -50.59375 3.867188 -50.726562 3.921875 -50.875 C 3.921875 -51.863281 4.441406 -52.429688 5.484375 -52.578125 L 11.703125 -52.578125 C 11.847656 -52.578125 11.984375 -52.585938 12.109375 -52.609375 C 12.234375 -52.640625 12.34375 -52.65625 12.4375 -52.65625 C 14.019531 -52.65625 15.597656 -52.664062 17.171875 -52.6875 C 18.753906 -52.71875 20.3125 -52.734375 21.84375 -52.734375 C 22.238281 -52.734375 22.644531 -52.71875 23.0625 -52.6875 C 23.488281 -52.664062 23.921875 -52.65625 24.359375 -52.65625 C 25.054688 -52.65625 25.75 -52.640625 26.4375 -52.609375 C 27.132812 -52.585938 27.828125 -52.578125 28.515625 -52.578125 C 28.859375 -52.578125 29.203125 -52.578125 29.546875 -52.578125 C 29.890625 -52.578125 30.238281 -52.601562 30.59375 -52.65625 C 30.6875 -52.707031 30.90625 -52.734375 31.25 -52.734375 C 32.539062 -52.679688 33.234375 -51.941406 33.328125 -50.515625 L 33.546875 -43.625 C 33.597656 -43.175781 33.453125 -42.679688 33.109375 -42.140625 C 32.910156 -41.890625 32.675781 -41.726562 32.40625 -41.65625 C 32.132812 -41.582031 31.847656 -41.519531 31.546875 -41.46875 C 30.804688 -41.425781 30.050781 -41.390625 29.28125 -41.359375 C 28.519531 -41.335938 27.769531 -41.300781 27.03125 -41.25 C 26 -41.195312 24.972656 -41.171875 23.953125 -41.171875 C 22.941406 -41.171875 21.921875 -41.171875 20.890625 -41.171875 C 20.046875 -41.128906 19.175781 -41.082031 18.28125 -41.03125 C 17.394531 -40.976562 16.535156 -40.90625 15.703125 -40.8125 C 15.398438 -40.757812 15.226562 -40.585938 15.1875 -40.296875 C 15.1875 -39.203125 15.171875 -38.132812 15.140625 -37.09375 C 15.117188 -36.0625 15.082031 -35.03125 15.03125 -34 C 15.03125 -33.695312 15.066406 -33.519531 15.140625 -33.46875 C 15.210938 -33.425781 15.375 -33.40625 15.625 -33.40625 C 16.46875 -33.40625 17.304688 -33.414062 18.140625 -33.4375 C 18.984375 -33.457031 19.800781 -33.46875 20.59375 -33.46875 C 21.625 -33.519531 22.65625 -33.53125 23.6875 -33.5 C 24.726562 -33.476562 25.742188 -33.46875 26.734375 -33.46875 L 28.21875 -33.46875 C 28.46875 -33.46875 28.613281 -33.441406 28.65625 -33.390625 C 28.707031 -33.347656 28.757812 -33.203125 28.8125 -32.953125 C 28.863281 -32.609375 28.898438 -32.25 28.921875 -31.875 C 28.941406 -31.507812 28.953125 -31.128906 28.953125 -30.734375 C 29.003906 -29.941406 29.03125 -29.125 29.03125 -28.28125 C 29.03125 -27.445312 29.03125 -26.613281 29.03125 -25.78125 C 29.03125 -25.1875 28.707031 -24.835938 28.0625 -24.734375 L 25.921875 -24.734375 C 25.128906 -24.679688 24.363281 -24.601562 23.625 -24.5 C 22.882812 -24.40625 22.117188 -24.335938 21.328125 -24.296875 C 20.492188 -24.242188 19.644531 -24.191406 18.78125 -24.140625 C 17.914062 -24.097656 17.0625 -24.023438 16.21875 -23.921875 C 15.726562 -23.921875 15.429688 -23.882812 15.328125 -23.8125 C 15.234375 -23.738281 15.1875 -23.453125 15.1875 -22.953125 C 15.1875 -21.617188 15.1875 -20.285156 15.1875 -18.953125 C 15.1875 -17.617188 15.207031 -16.265625 15.25 -14.890625 L 15.25 -10.296875 C 15.25 -9.992188 15.273438 -9.804688 15.328125 -9.734375 C 15.378906 -9.660156 15.578125 -9.648438 15.921875 -9.703125 C 17.160156 -9.703125 18.40625 -9.703125 19.65625 -9.703125 C 20.914062 -9.703125 22.164062 -9.726562 23.40625 -9.78125 C 24.09375 -9.78125 24.796875 -9.800781 25.515625 -9.84375 C 26.234375 -9.894531 26.9375 -9.945312 27.625 -10 C 28.070312 -10 28.53125 -9.984375 29 -9.953125 C 29.46875 -9.929688 29.921875 -9.921875 30.359375 -9.921875 C 30.515625 -9.867188 30.664062 -9.851562 30.8125 -9.875 C 30.957031 -9.90625 31.101562 -9.921875 31.25 -9.921875 C 32.09375 -10.066406 32.710938 -9.769531 33.109375 -9.03125 C 33.160156 -8.988281 33.1875 -8.953125 33.1875 -8.921875 C 33.1875 -8.898438 33.1875 -8.890625 33.1875 -8.890625 C 33.53125 -8.691406 33.722656 -8.414062 33.765625 -8.0625 C 33.816406 -7.71875 33.84375 -7.398438 33.84375 -7.109375 C 33.894531 -6.265625 33.96875 -5.410156 34.0625 -4.546875 C 34.164062 -3.691406 34.191406 -2.84375 34.140625 -2 C 34.140625 -1.601562 34.050781 -1.242188 33.875 -0.921875 C 33.707031 -0.597656 33.5 -0.289062 33.25 0 C 33.15625 0.144531 33.019531 0.226562 32.84375 0.25 C 32.675781 0.28125 32.492188 0.296875 32.296875 0.296875 C 31.054688 0.347656 29.816406 0.375 28.578125 0.375 C 27.347656 0.375 26.09375 0.394531 24.8125 0.4375 C 24.164062 0.4375 23.535156 0.460938 22.921875 0.515625 C 22.304688 0.566406 21.648438 0.617188 20.953125 0.671875 C 20.015625 0.710938 19.039062 0.734375 18.03125 0.734375 C 17.019531 0.734375 16.019531 0.734375 15.03125 0.734375 C 14.34375 0.785156 13.640625 0.835938 12.921875 0.890625 C 12.203125 0.941406 11.5 0.988281 10.8125 1.03125 C 9.382812 1.132812 7.925781 1.132812 6.4375 1.03125 C 6.09375 1.03125 5.75 0.96875 5.40625 0.84375 C 5.0625 0.726562 4.691406 0.644531 4.296875 0.59375 C 4.046875 0.488281 3.875 0.363281 3.78125 0.21875 C 3.582031 -0.0703125 3.394531 -0.378906 3.21875 -0.703125 C 3.050781 -1.023438 2.988281 -1.382812 3.03125 -1.78125 C 3.082031 -2.914062 3.109375 -4.023438 3.109375 -5.109375 C 3.109375 -6.191406 3.132812 -7.28125 3.1875 -8.375 C 3.238281 -9.945312 3.273438 -11.5 3.296875 -13.03125 C 3.316406 -14.5625 3.351562 -16.09375 3.40625 -17.625 C 3.457031 -19.0625 3.492188 -20.429688 3.515625 -21.734375 C 3.546875 -23.046875 3.582031 -24.117188 3.625 -24.953125 Z M 3.625 -24.953125 "/></g></g></g><g fill="#f49097" fill-opacity="1"><g transform="translate(128.236629, 166.946577)"><g><path d="M 36.515625 0.671875 C 36.210938 0.710938 35.898438 0.734375 35.578125 0.734375 C 35.265625 0.734375 34.9375 0.757812 34.59375 0.8125 C 34.4375 0.8125 34.285156 0.820312 34.140625 0.84375 C 33.992188 0.875 33.847656 0.890625 33.703125 0.890625 C 33.253906 0.941406 32.804688 0.976562 32.359375 1 C 31.921875 1.019531 31.453125 1.054688 30.953125 1.109375 C 30.609375 1.160156 30.273438 1.160156 29.953125 1.109375 C 29.640625 1.054688 29.332031 0.929688 29.03125 0.734375 C 28.78125 0.585938 28.554688 0.390625 28.359375 0.140625 C 28.015625 -0.597656 27.691406 -1.335938 27.390625 -2.078125 C 27.097656 -2.816406 26.878906 -3.582031 26.734375 -4.375 C 26.679688 -4.613281 26.628906 -4.84375 26.578125 -5.0625 C 26.535156 -5.289062 26.515625 -5.503906 26.515625 -5.703125 C 26.410156 -5.992188 26.238281 -6.117188 26 -6.078125 C 25.5 -6.078125 24.988281 -6.078125 24.46875 -6.078125 C 23.957031 -6.078125 23.429688 -6.050781 22.890625 -6 C 22.347656 -5.945312 21.800781 -5.894531 21.25 -5.84375 C 20.707031 -5.800781 20.164062 -5.753906 19.625 -5.703125 C 18.976562 -5.648438 18.320312 -5.625 17.65625 -5.625 C 17 -5.625 16.320312 -5.625 15.625 -5.625 C 15.175781 -5.625 14.914062 -5.625 14.84375 -5.625 C 14.769531 -5.625 14.6875 -5.351562 14.59375 -4.8125 C 14.539062 -4.320312 14.453125 -3.84375 14.328125 -3.375 C 14.203125 -2.90625 14.019531 -2.445312 13.78125 -2 L 13.109375 -0.4375 C 12.960938 0.0507812 12.640625 0.296875 12.140625 0.296875 C 11.847656 0.347656 11.566406 0.382812 11.296875 0.40625 C 11.023438 0.425781 10.738281 0.4375 10.4375 0.4375 C 9.5 0.488281 8.546875 0.539062 7.578125 0.59375 C 6.617188 0.644531 5.648438 0.691406 4.671875 0.734375 C 4.367188 0.734375 4.082031 0.722656 3.8125 0.703125 C 3.539062 0.679688 3.28125 0.644531 3.03125 0.59375 C 2.832031 0.59375 2.585938 0.492188 2.296875 0.296875 C 1.609375 -0.0976562 1.382812 -0.71875 1.625 -1.5625 C 1.875 -2.394531 2.117188 -3.253906 2.359375 -4.140625 C 2.609375 -5.035156 2.832031 -5.898438 3.03125 -6.734375 C 3.226562 -7.273438 3.410156 -7.832031 3.578125 -8.40625 C 3.753906 -8.976562 3.941406 -9.507812 4.140625 -10 C 4.585938 -11.582031 4.960938 -13.160156 5.265625 -14.734375 C 5.554688 -16.460938 5.925781 -18.164062 6.375 -19.84375 C 6.71875 -21.03125 7.0625 -22.21875 7.40625 -23.40625 C 7.75 -24.59375 8.09375 -25.800781 8.4375 -27.03125 C 8.789062 -28.164062 9.125 -29.273438 9.4375 -30.359375 C 9.757812 -31.453125 10.09375 -32.539062 10.4375 -33.625 L 12.890625 -42.296875 C 12.984375 -42.535156 13.066406 -42.800781 13.140625 -43.09375 C 13.210938 -43.394531 13.273438 -43.695312 13.328125 -44 C 13.578125 -44.882812 13.800781 -45.757812 14 -46.625 C 14.195312 -47.488281 14.421875 -48.363281 14.671875 -49.25 C 14.765625 -49.5 14.875 -49.757812 15 -50.03125 C 15.125 -50.300781 15.257812 -50.5625 15.40625 -50.8125 C 15.550781 -51.207031 15.820312 -51.40625 16.21875 -51.40625 L 18.21875 -51.625 C 18.863281 -51.71875 19.492188 -51.8125 20.109375 -51.90625 C 20.722656 -52.007812 21.328125 -52.085938 21.921875 -52.140625 C 22.171875 -52.191406 22.429688 -52.226562 22.703125 -52.25 C 22.972656 -52.269531 23.234375 -52.257812 23.484375 -52.21875 C 23.722656 -52.164062 23.953125 -52.125 24.171875 -52.09375 C 24.398438 -52.070312 24.613281 -52.085938 24.8125 -52.140625 C 25.601562 -52.191406 26.097656 -51.820312 26.296875 -51.03125 C 26.441406 -50.53125 26.578125 -50.046875 26.703125 -49.578125 C 26.828125 -49.109375 26.9375 -48.628906 27.03125 -48.140625 C 27.082031 -48.046875 27.109375 -47.9375 27.109375 -47.8125 C 27.109375 -47.6875 27.132812 -47.570312 27.1875 -47.46875 C 27.425781 -46.832031 27.617188 -46.179688 27.765625 -45.515625 C 27.921875 -44.847656 28.070312 -44.164062 28.21875 -43.46875 C 28.3125 -42.882812 28.445312 -42.304688 28.625 -41.734375 C 28.800781 -41.160156 28.960938 -40.582031 29.109375 -40 C 29.398438 -39.0625 29.707031 -38.132812 30.03125 -37.21875 C 30.351562 -36.300781 30.640625 -35.347656 30.890625 -34.359375 C 31.128906 -33.617188 31.359375 -32.851562 31.578125 -32.0625 C 31.804688 -31.28125 32.019531 -30.492188 32.21875 -29.703125 C 32.664062 -27.921875 33.125 -26.128906 33.59375 -24.328125 C 34.0625 -22.523438 34.539062 -20.734375 35.03125 -18.953125 C 35.28125 -18.015625 35.539062 -17.050781 35.8125 -16.0625 C 36.082031 -15.082031 36.316406 -14.097656 36.515625 -13.109375 C 36.609375 -12.566406 36.71875 -12 36.84375 -11.40625 C 36.96875 -10.8125 37.054688 -10.242188 37.109375 -9.703125 C 37.203125 -9.359375 37.285156 -9.035156 37.359375 -8.734375 C 37.429688 -8.441406 37.492188 -8.125 37.546875 -7.78125 C 37.648438 -7.332031 37.75 -6.875 37.84375 -6.40625 C 37.945312 -5.9375 38.046875 -5.457031 38.140625 -4.96875 C 38.242188 -4.613281 38.351562 -4.238281 38.46875 -3.84375 C 38.59375 -3.457031 38.707031 -3.066406 38.8125 -2.671875 L 39.25 -1.109375 C 39.300781 -0.765625 39.203125 -0.429688 38.953125 -0.109375 C 38.710938 0.210938 38.414062 0.421875 38.0625 0.515625 C 37.820312 0.566406 37.566406 0.613281 37.296875 0.65625 C 37.023438 0.707031 36.765625 0.710938 36.515625 0.671875 Z M 20.515625 -31.921875 L 20.375 -31.921875 C 20.320312 -31.722656 20.257812 -31.488281 20.1875 -31.21875 C 20.113281 -30.945312 20.050781 -30.6875 20 -30.4375 C 19.695312 -29.101562 19.394531 -27.753906 19.09375 -26.390625 C 18.800781 -25.035156 18.535156 -23.671875 18.296875 -22.296875 C 18.148438 -21.597656 18.015625 -20.890625 17.890625 -20.171875 C 17.765625 -19.460938 17.648438 -18.765625 17.546875 -18.078125 C 17.503906 -17.773438 17.628906 -17.625 17.921875 -17.625 L 19.625 -17.625 C 20.3125 -17.726562 21.015625 -17.789062 21.734375 -17.8125 C 22.453125 -17.832031 23.15625 -17.894531 23.84375 -18 C 24.238281 -18.050781 24.460938 -18.113281 24.515625 -18.1875 C 24.566406 -18.257812 24.539062 -18.46875 24.4375 -18.8125 C 24.382812 -18.90625 24.359375 -18.976562 24.359375 -19.03125 C 24.359375 -19.082031 24.335938 -19.132812 24.296875 -19.1875 C 24.242188 -19.53125 24.15625 -19.847656 24.03125 -20.140625 C 23.90625 -20.441406 23.796875 -20.765625 23.703125 -21.109375 C 23.503906 -22.097656 23.28125 -23.109375 23.03125 -24.140625 C 22.78125 -25.179688 22.484375 -26.171875 22.140625 -27.109375 C 21.941406 -27.648438 21.753906 -28.179688 21.578125 -28.703125 C 21.410156 -29.222656 21.226562 -29.753906 21.03125 -30.296875 C 20.9375 -30.535156 20.847656 -30.800781 20.765625 -31.09375 C 20.691406 -31.394531 20.609375 -31.671875 20.515625 -31.921875 Z M 20.515625 -31.921875 "/></g></g></g><g fill="#f5e960" fill-opacity="1"><g transform="translate(166.072159, 166.946577)"><g><path d="M 22.8125 -33.84375 C 23.0625 -34.238281 23.207031 -34.535156 23.25 -34.734375 C 23.894531 -36.015625 24.523438 -37.269531 25.140625 -38.5 C 25.753906 -39.738281 26.382812 -40.976562 27.03125 -42.21875 C 27.570312 -43.351562 28.09375 -44.585938 28.59375 -45.921875 C 29.03125 -46.953125 29.457031 -48.007812 29.875 -49.09375 C 30.300781 -50.1875 30.757812 -51.226562 31.25 -52.21875 C 31.550781 -52.851562 32.070312 -53.171875 32.8125 -53.171875 C 33.84375 -53.171875 34.863281 -53.144531 35.875 -53.09375 C 36.894531 -53.050781 37.921875 -52.957031 38.953125 -52.8125 C 39.492188 -52.757812 39.972656 -52.597656 40.390625 -52.328125 C 40.816406 -52.054688 41.101562 -51.570312 41.25 -50.875 C 41.394531 -50.332031 41.492188 -49.765625 41.546875 -49.171875 C 41.597656 -48.578125 41.648438 -47.988281 41.703125 -47.40625 C 41.941406 -45.425781 42.035156 -43.4375 41.984375 -41.4375 C 41.941406 -39.4375 41.921875 -37.425781 41.921875 -35.40625 C 41.867188 -32.34375 41.828125 -29.289062 41.796875 -26.25 C 41.773438 -23.21875 41.742188 -20.171875 41.703125 -17.109375 C 41.703125 -15.921875 41.722656 -14.722656 41.765625 -13.515625 C 41.816406 -12.304688 41.867188 -11.109375 41.921875 -9.921875 C 41.972656 -8.441406 42 -6.945312 42 -5.4375 C 42 -3.9375 42.019531 -2.445312 42.0625 -0.96875 C 42.0625 -0.414062 41.914062 -0.046875 41.625 0.140625 C 41.425781 0.242188 41.203125 0.34375 40.953125 0.4375 C 40.710938 0.539062 40.46875 0.617188 40.21875 0.671875 C 39.820312 0.710938 39.398438 0.710938 38.953125 0.671875 C 38.265625 0.566406 37.5625 0.550781 36.84375 0.625 C 36.125 0.695312 35.394531 0.734375 34.65625 0.734375 C 34.457031 0.785156 34.234375 0.8125 33.984375 0.8125 C 33.742188 0.8125 33.5 0.8125 33.25 0.8125 C 32.8125 0.757812 32.429688 0.570312 32.109375 0.25 C 31.785156 -0.0625 31.625 -0.441406 31.625 -0.890625 C 31.570312 -2.566406 31.535156 -4.21875 31.515625 -5.84375 C 31.492188 -7.476562 31.484375 -9.132812 31.484375 -10.8125 C 31.429688 -13.875 31.40625 -16.910156 31.40625 -19.921875 C 31.40625 -22.929688 31.40625 -25.941406 31.40625 -28.953125 C 31.40625 -29.054688 31.351562 -29.207031 31.25 -29.40625 C 31.207031 -29.351562 31.160156 -29.289062 31.109375 -29.21875 C 31.054688 -29.144531 31.03125 -29.054688 31.03125 -28.953125 C 30.832031 -28.460938 30.632812 -27.945312 30.4375 -27.40625 C 30.238281 -26.863281 30.015625 -26.320312 29.765625 -25.78125 C 29.617188 -25.382812 29.445312 -24.972656 29.25 -24.546875 C 29.050781 -24.128906 28.851562 -23.695312 28.65625 -23.25 C 28.507812 -22.90625 28.375 -22.5625 28.25 -22.21875 C 28.125 -21.875 27.96875 -21.53125 27.78125 -21.1875 C 27.582031 -20.789062 27.367188 -20.378906 27.140625 -19.953125 C 26.921875 -19.535156 26.710938 -19.128906 26.515625 -18.734375 C 26.171875 -18.097656 25.835938 -17.429688 25.515625 -16.734375 C 25.191406 -16.046875 24.859375 -15.378906 24.515625 -14.734375 C 24.460938 -14.535156 24.363281 -14.347656 24.21875 -14.171875 C 24.070312 -14.003906 23.945312 -13.847656 23.84375 -13.703125 C 23.644531 -13.359375 23.320312 -13.195312 22.875 -13.21875 C 22.4375 -13.238281 22.09375 -13.375 21.84375 -13.625 C 21.550781 -14.019531 21.304688 -14.398438 21.109375 -14.765625 C 20.910156 -15.140625 20.710938 -15.5 20.515625 -15.84375 C 20.171875 -16.539062 19.820312 -17.242188 19.46875 -17.953125 C 19.125 -18.671875 18.78125 -19.378906 18.4375 -20.078125 C 17.84375 -21.359375 17.25 -22.613281 16.65625 -23.84375 C 16.070312 -25.082031 15.554688 -26.367188 15.109375 -27.703125 C 15.054688 -27.992188 14.957031 -28.273438 14.8125 -28.546875 C 14.664062 -28.816406 14.539062 -29.128906 14.4375 -29.484375 C 14.34375 -29.328125 14.296875 -29.1875 14.296875 -29.0625 C 14.296875 -28.945312 14.296875 -28.835938 14.296875 -28.734375 L 14.296875 -20.375 L 14.078125 -2.8125 L 14.078125 -0.515625 C 13.972656 0.367188 13.503906 0.8125 12.671875 0.8125 C 12.117188 0.8125 11.546875 0.785156 10.953125 0.734375 C 10.367188 0.691406 9.78125 0.671875 9.1875 0.671875 C 8.988281 0.617188 8.753906 0.59375 8.484375 0.59375 C 8.210938 0.59375 7.953125 0.59375 7.703125 0.59375 C 7.160156 0.59375 6.59375 0.601562 6 0.625 C 5.40625 0.65625 4.8125 0.671875 4.21875 0.671875 C 3.820312 0.671875 3.503906 0.472656 3.265625 0.078125 C 3.066406 -0.367188 2.988281 -0.816406 3.03125 -1.265625 C 3.082031 -3.140625 3.117188 -5.015625 3.140625 -6.890625 C 3.171875 -8.765625 3.210938 -10.613281 3.265625 -12.4375 C 3.265625 -13.925781 3.3125 -15.394531 3.40625 -16.84375 C 3.507812 -18.300781 3.535156 -19.769531 3.484375 -21.25 C 3.429688 -22.238281 3.390625 -23.25 3.359375 -24.28125 C 3.335938 -25.320312 3.328125 -26.335938 3.328125 -27.328125 C 3.328125 -29.054688 3.316406 -30.804688 3.296875 -32.578125 C 3.273438 -34.359375 3.3125 -36.113281 3.40625 -37.84375 C 3.507812 -40.113281 3.5625 -42.359375 3.5625 -44.578125 C 3.5625 -46.804688 3.5625 -49.03125 3.5625 -51.25 C 3.5625 -51.5 3.582031 -51.671875 3.625 -51.765625 C 3.625 -52.210938 3.875 -52.484375 4.375 -52.578125 C 5.457031 -52.734375 6.539062 -52.859375 7.625 -52.953125 C 8.71875 -53.054688 9.804688 -53.128906 10.890625 -53.171875 L 13.03125 -53.171875 C 13.625 -53.171875 14.046875 -52.898438 14.296875 -52.359375 C 14.640625 -51.566406 14.984375 -50.773438 15.328125 -49.984375 C 15.671875 -49.203125 15.992188 -48.414062 16.296875 -47.625 C 16.734375 -46.632812 17.148438 -45.632812 17.546875 -44.625 C 17.941406 -43.613281 18.390625 -42.613281 18.890625 -41.625 C 20.066406 -39.351562 21.203125 -37.082031 22.296875 -34.8125 C 22.390625 -34.664062 22.472656 -34.53125 22.546875 -34.40625 C 22.617188 -34.28125 22.707031 -34.09375 22.8125 -33.84375 Z M 22.8125 -33.84375 "/></g></g></g><g fill="#0cc0df" fill-opacity="1"><g transform="translate(62.329238, 98.981124)"><g><path d="M 3.625 -24.953125 C 3.726562 -29.054688 3.800781 -32.894531 3.84375 -36.46875 C 3.894531 -40.050781 3.945312 -43.570312 4 -47.03125 C 4 -47.570312 3.984375 -48.101562 3.953125 -48.625 C 3.929688 -49.144531 3.921875 -49.648438 3.921875 -50.140625 C 3.921875 -50.234375 3.90625 -50.34375 3.875 -50.46875 C 3.851562 -50.59375 3.867188 -50.726562 3.921875 -50.875 C 3.921875 -51.863281 4.441406 -52.429688 5.484375 -52.578125 L 11.703125 -52.578125 C 11.847656 -52.578125 11.984375 -52.585938 12.109375 -52.609375 C 12.234375 -52.640625 12.34375 -52.65625 12.4375 -52.65625 C 14.019531 -52.65625 15.597656 -52.664062 17.171875 -52.6875 C 18.753906 -52.71875 20.3125 -52.734375 21.84375 -52.734375 C 22.238281 -52.734375 22.644531 -52.71875 23.0625 -52.6875 C 23.488281 -52.664062 23.921875 -52.65625 24.359375 -52.65625 C 25.054688 -52.65625 25.75 -52.640625 26.4375 -52.609375 C 27.132812 -52.585938 27.828125 -52.578125 28.515625 -52.578125 C 28.859375 -52.578125 29.203125 -52.578125 29.546875 -52.578125 C 29.890625 -52.578125 30.238281 -52.601562 30.59375 -52.65625 C 30.6875 -52.707031 30.90625 -52.734375 31.25 -52.734375 C 32.539062 -52.679688 33.234375 -51.941406 33.328125 -50.515625 L 33.546875 -43.625 C 33.597656 -43.175781 33.453125 -42.679688 33.109375 -42.140625 C 32.910156 -41.890625 32.675781 -41.726562 32.40625 -41.65625 C 32.132812 -41.582031 31.847656 -41.519531 31.546875 -41.46875 C 30.804688 -41.425781 30.050781 -41.390625 29.28125 -41.359375 C 28.519531 -41.335938 27.769531 -41.300781 27.03125 -41.25 C 26 -41.195312 24.972656 -41.171875 23.953125 -41.171875 C 22.941406 -41.171875 21.921875 -41.171875 20.890625 -41.171875 C 20.046875 -41.128906 19.175781 -41.082031 18.28125 -41.03125 C 17.394531 -40.976562 16.535156 -40.90625 15.703125 -40.8125 C 15.398438 -40.757812 15.226562 -40.585938 15.1875 -40.296875 C 15.1875 -39.203125 15.171875 -38.132812 15.140625 -37.09375 C 15.117188 -36.0625 15.082031 -35.03125 15.03125 -34 C 15.03125 -33.695312 15.066406 -33.519531 15.140625 -33.46875 C 15.210938 -33.425781 15.375 -33.40625 15.625 -33.40625 C 16.46875 -33.40625 17.304688 -33.414062 18.140625 -33.4375 C 18.984375 -33.457031 19.800781 -33.46875 20.59375 -33.46875 C 21.625 -33.519531 22.65625 -33.53125 23.6875 -33.5 C 24.726562 -33.476562 25.742188 -33.46875 26.734375 -33.46875 L 28.21875 -33.46875 C 28.46875 -33.46875 28.613281 -33.441406 28.65625 -33.390625 C 28.707031 -33.347656 28.757812 -33.203125 28.8125 -32.953125 C 28.863281 -32.609375 28.898438 -32.25 28.921875 -31.875 C 28.941406 -31.507812 28.953125 -31.128906 28.953125 -30.734375 C 29.003906 -29.941406 29.03125 -29.125 29.03125 -28.28125 C 29.03125 -27.445312 29.03125 -26.613281 29.03125 -25.78125 C 29.03125 -25.1875 28.707031 -24.835938 28.0625 -24.734375 L 25.921875 -24.734375 C 25.128906 -24.679688 24.363281 -24.601562 23.625 -24.5 C 22.882812 -24.40625 22.117188 -24.335938 21.328125 -24.296875 C 20.492188 -24.242188 19.644531 -24.191406 18.78125 -24.140625 C 17.914062 -24.097656 17.0625 -24.023438 16.21875 -23.921875 C 15.726562 -23.921875 15.429688 -23.882812 15.328125 -23.8125 C 15.234375 -23.738281 15.1875 -23.453125 15.1875 -22.953125 C 15.1875 -21.617188 15.1875 -20.285156 15.1875 -18.953125 C 15.1875 -17.617188 15.207031 -16.265625 15.25 -14.890625 L 15.25 -10.296875 C 15.25 -9.992188 15.273438 -9.804688 15.328125 -9.734375 C 15.378906 -9.660156 15.578125 -9.648438 15.921875 -9.703125 C 17.160156 -9.703125 18.40625 -9.703125 19.65625 -9.703125 C 20.914062 -9.703125 22.164062 -9.726562 23.40625 -9.78125 C 24.09375 -9.78125 24.796875 -9.800781 25.515625 -9.84375 C 26.234375 -9.894531 26.9375 -9.945312 27.625 -10 C 28.070312 -10 28.53125 -9.984375 29 -9.953125 C 29.46875 -9.929688 29.921875 -9.921875 30.359375 -9.921875 C 30.515625 -9.867188 30.664062 -9.851562 30.8125 -9.875 C 30.957031 -9.90625 31.101562 -9.921875 31.25 -9.921875 C 32.09375 -10.066406 32.710938 -9.769531 33.109375 -9.03125 C 33.160156 -8.988281 33.1875 -8.953125 33.1875 -8.921875 C 33.1875 -8.898438 33.1875 -8.890625 33.1875 -8.890625 C 33.53125 -8.691406 33.722656 -8.414062 33.765625 -8.0625 C 33.816406 -7.71875 33.84375 -7.398438 33.84375 -7.109375 C 33.894531 -6.265625 33.96875 -5.410156 34.0625 -4.546875 C 34.164062 -3.691406 34.191406 -2.84375 34.140625 -2 C 34.140625 -1.601562 34.050781 -1.242188 33.875 -0.921875 C 33.707031 -0.597656 33.5 -0.289062 33.25 0 C 33.15625 0.144531 33.019531 0.226562 32.84375 0.25 C 32.675781 0.28125 32.492188 0.296875 32.296875 0.296875 C 31.054688 0.347656 29.816406 0.375 28.578125 0.375 C 27.347656 0.375 26.09375 0.394531 24.8125 0.4375 C 24.164062 0.4375 23.535156 0.460938 22.921875 0.515625 C 22.304688 0.566406 21.648438 0.617188 20.953125 0.671875 C 20.015625 0.710938 19.039062 0.734375 18.03125 0.734375 C 17.019531 0.734375 16.019531 0.734375 15.03125 0.734375 C 14.34375 0.785156 13.640625 0.835938 12.921875 0.890625 C 12.203125 0.941406 11.5 0.988281 10.8125 1.03125 C 9.382812 1.132812 7.925781 1.132812 6.4375 1.03125 C 6.09375 1.03125 5.75 0.96875 5.40625 0.84375 C 5.0625 0.726562 4.691406 0.644531 4.296875 0.59375 C 4.046875 0.488281 3.875 0.363281 3.78125 0.21875 C 3.582031 -0.0703125 3.394531 -0.378906 3.21875 -0.703125 C 3.050781 -1.023438 2.988281 -1.382812 3.03125 -1.78125 C 3.082031 -2.914062 3.109375 -4.023438 3.109375 -5.109375 C 3.109375 -6.191406 3.132812 -7.28125 3.1875 -8.375 C 3.238281 -9.945312 3.273438 -11.5 3.296875 -13.03125 C 3.316406 -14.5625 3.351562 -16.09375 3.40625 -17.625 C 3.457031 -19.0625 3.492188 -20.429688 3.515625 -21.734375 C 3.546875 -23.046875 3.582031 -24.117188 3.625 -24.953125 Z M 3.625 -24.953125 "/></g></g></g><g fill="#0cc0df" fill-opacity="1"><g transform="translate(99.138064, 109.9911)"><g><path d="M 3.109375 -34.8125 C 3.210938 -37.082031 3.273438 -39.335938 3.296875 -41.578125 C 3.316406 -43.828125 3.351562 -46.085938 3.40625 -48.359375 C 3.40625 -48.804688 3.429688 -49.265625 3.484375 -49.734375 C 3.535156 -50.203125 3.5625 -50.679688 3.5625 -51.171875 C 3.601562 -51.960938 4.046875 -52.3125 4.890625 -52.21875 C 5.234375 -52.21875 5.585938 -52.21875 5.953125 -52.21875 C 6.328125 -52.21875 6.6875 -52.238281 7.03125 -52.28125 L 11.625 -52.28125 C 11.925781 -52.28125 12.148438 -52.085938 12.296875 -51.703125 C 12.347656 -51.503906 12.382812 -51.28125 12.40625 -51.03125 C 12.425781 -50.78125 12.4375 -50.53125 12.4375 -50.28125 C 12.4375 -49 12.4375 -47.703125 12.4375 -46.390625 C 12.4375 -45.085938 12.414062 -43.796875 12.375 -42.515625 C 12.375 -40.535156 12.296875 -38.535156 12.140625 -36.515625 C 12.097656 -35.671875 12.050781 -34.816406 12 -33.953125 C 11.945312 -33.085938 11.894531 -32.238281 11.84375 -31.40625 C 11.800781 -30.3125 11.765625 -29.234375 11.734375 -28.171875 C 11.710938 -27.117188 11.703125 -26.023438 11.703125 -24.890625 C 11.703125 -24.097656 11.710938 -23.28125 11.734375 -22.4375 C 11.765625 -21.601562 11.78125 -20.765625 11.78125 -19.921875 C 11.820312 -17.648438 12.164062 -15.351562 12.8125 -13.03125 C 13.007812 -12.238281 13.378906 -11.472656 13.921875 -10.734375 C 14.566406 -9.847656 15.40625 -9.257812 16.4375 -8.96875 C 16.59375 -8.914062 16.753906 -8.875 16.921875 -8.84375 C 17.097656 -8.820312 17.257812 -8.765625 17.40625 -8.671875 C 17.945312 -8.472656 18.460938 -8.382812 18.953125 -8.40625 C 19.453125 -8.425781 19.945312 -8.515625 20.4375 -8.671875 C 20.632812 -8.710938 20.832031 -8.757812 21.03125 -8.8125 C 21.226562 -8.863281 21.425781 -8.9375 21.625 -9.03125 C 22.21875 -9.332031 22.695312 -9.738281 23.0625 -10.25 C 23.4375 -10.769531 23.722656 -11.328125 23.921875 -11.921875 C 24.410156 -13.453125 24.78125 -15.054688 25.03125 -16.734375 C 25.226562 -18.015625 25.398438 -19.269531 25.546875 -20.5 C 25.703125 -21.738281 25.78125 -22.976562 25.78125 -24.21875 C 25.78125 -24.757812 25.816406 -25.3125 25.890625 -25.875 C 25.960938 -26.445312 26.019531 -27.003906 26.0625 -27.546875 C 26.113281 -28.140625 26.140625 -28.742188 26.140625 -29.359375 C 26.140625 -29.984375 26.140625 -30.59375 26.140625 -31.1875 C 26.191406 -33.65625 26.21875 -36.109375 26.21875 -38.546875 C 26.21875 -40.992188 26.21875 -43.425781 26.21875 -45.84375 C 26.21875 -46.6875 26.226562 -47.5 26.25 -48.28125 C 26.28125 -49.070312 26.316406 -49.863281 26.359375 -50.65625 C 26.410156 -51.59375 26.859375 -52.085938 27.703125 -52.140625 C 28.691406 -52.191406 29.664062 -52.238281 30.625 -52.28125 C 31.582031 -52.332031 32.53125 -52.382812 33.46875 -52.4375 L 34 -52.4375 C 34.738281 -52.4375 35.109375 -52.09375 35.109375 -51.40625 L 35.109375 -50.28125 C 35.054688 -47.625 35.015625 -44.972656 34.984375 -42.328125 C 34.960938 -39.679688 34.953125 -37.023438 34.953125 -34.359375 C 34.910156 -32.984375 34.890625 -31.628906 34.890625 -30.296875 C 34.890625 -28.960938 34.863281 -27.601562 34.8125 -26.21875 C 34.757812 -24.394531 34.660156 -22.554688 34.515625 -20.703125 C 34.367188 -18.847656 34.144531 -16.984375 33.84375 -15.109375 C 33.445312 -12.835938 32.929688 -10.640625 32.296875 -8.515625 C 32.046875 -7.679688 31.722656 -6.867188 31.328125 -6.078125 C 30.929688 -5.285156 30.460938 -4.519531 29.921875 -3.78125 C 29.523438 -3.1875 29.054688 -2.675781 28.515625 -2.25 C 27.972656 -1.832031 27.40625 -1.425781 26.8125 -1.03125 C 25.925781 -0.539062 24.988281 -0.0976562 24 0.296875 C 23.007812 0.691406 21.992188 0.9375 20.953125 1.03125 C 20.265625 1.132812 19.5625 1.160156 18.84375 1.109375 C 18.132812 1.054688 17.429688 1.007812 16.734375 0.96875 C 16.390625 0.914062 16.054688 0.863281 15.734375 0.8125 C 15.410156 0.757812 15.101562 0.710938 14.8125 0.671875 C 12.59375 0.078125 10.664062 -1.054688 9.03125 -2.734375 C 8.6875 -3.128906 8.351562 -3.523438 8.03125 -3.921875 C 7.707031 -4.316406 7.425781 -4.710938 7.1875 -5.109375 C 5.0625 -8.515625 3.800781 -12.242188 3.40625 -16.296875 C 3.351562 -16.984375 3.300781 -17.632812 3.25 -18.25 C 3.207031 -18.875 3.160156 -19.503906 3.109375 -20.140625 C 3.054688 -20.984375 3.019531 -21.847656 3 -22.734375 C 2.976562 -23.628906 2.988281 -24.492188 3.03125 -25.328125 C 3.03125 -26.910156 3.039062 -28.488281 3.0625 -30.0625 C 3.09375 -31.644531 3.109375 -33.226562 3.109375 -34.8125 Z M 3.109375 -34.8125 "/></g></g></g><g fill="#0cc0df" fill-opacity="1"><g transform="translate(136.931653, 93.564855)"><g><path d="M 3.84375 -8.734375 C 3.800781 -10.171875 3.78125 -11.613281 3.78125 -13.0625 C 3.78125 -14.519531 3.753906 -15.96875 3.703125 -17.40625 C 3.648438 -18.539062 3.597656 -19.675781 3.546875 -20.8125 C 3.503906 -21.945312 3.457031 -23.082031 3.40625 -24.21875 C 3.351562 -24.863281 3.328125 -25.519531 3.328125 -26.1875 C 3.328125 -26.851562 3.328125 -27.503906 3.328125 -28.140625 L 3.109375 -34.140625 C 2.960938 -39.273438 2.960938 -44.382812 3.109375 -49.46875 C 3.109375 -49.863281 3.117188 -50.257812 3.140625 -50.65625 C 3.171875 -51.050781 3.1875 -51.445312 3.1875 -51.84375 C 3.1875 -52.1875 3.359375 -52.429688 3.703125 -52.578125 C 3.953125 -52.679688 4.210938 -52.707031 4.484375 -52.65625 C 4.753906 -52.601562 5.015625 -52.554688 5.265625 -52.515625 C 5.503906 -52.460938 5.75 -52.421875 6 -52.390625 C 6.25 -52.367188 6.472656 -52.332031 6.671875 -52.28125 C 6.910156 -52.28125 7.164062 -52.269531 7.4375 -52.25 C 7.707031 -52.226562 7.96875 -52.21875 8.21875 -52.21875 C 8.613281 -52.21875 8.984375 -52.226562 9.328125 -52.25 C 9.671875 -52.269531 10.019531 -52.304688 10.375 -52.359375 C 10.613281 -52.359375 10.84375 -52.34375 11.0625 -52.3125 C 11.289062 -52.289062 11.53125 -52.28125 11.78125 -52.28125 C 12.757812 -52.28125 13.753906 -52.269531 14.765625 -52.25 C 15.785156 -52.226562 16.765625 -52.21875 17.703125 -52.21875 C 18.785156 -52.21875 19.859375 -52.226562 20.921875 -52.25 C 21.984375 -52.269531 23.035156 -52.28125 24.078125 -52.28125 C 24.710938 -52.28125 25.453125 -52.160156 26.296875 -51.921875 C 27.671875 -51.472656 28.851562 -50.789062 29.84375 -49.875 C 30.832031 -48.96875 31.722656 -47.921875 32.515625 -46.734375 C 32.710938 -46.484375 32.859375 -46.195312 32.953125 -45.875 C 33.054688 -45.5625 33.179688 -45.253906 33.328125 -44.953125 C 33.972656 -43.328125 34.46875 -41.671875 34.8125 -39.984375 C 35.15625 -38.304688 35.328125 -36.609375 35.328125 -34.890625 C 35.328125 -34.242188 35.328125 -33.585938 35.328125 -32.921875 C 35.328125 -32.253906 35.300781 -31.597656 35.25 -30.953125 C 35.207031 -29.867188 35.0625 -28.78125 34.8125 -27.6875 C 34.5625 -26.601562 34.265625 -25.546875 33.921875 -24.515625 C 33.722656 -23.867188 33.460938 -23.25 33.140625 -22.65625 C 32.816406 -22.070312 32.457031 -21.503906 32.0625 -20.953125 C 31.96875 -20.753906 31.847656 -20.59375 31.703125 -20.46875 C 31.554688 -20.351562 31.40625 -20.222656 31.25 -20.078125 C 31.050781 -19.878906 30.816406 -19.691406 30.546875 -19.515625 C 30.273438 -19.335938 30.015625 -19.148438 29.765625 -18.953125 C 29.578125 -18.859375 29.53125 -18.6875 29.625 -18.4375 C 29.875 -18.09375 30.082031 -17.769531 30.25 -17.46875 C 30.425781 -17.175781 30.613281 -16.882812 30.8125 -16.59375 C 30.957031 -16.289062 31.101562 -15.988281 31.25 -15.6875 C 31.40625 -15.394531 31.554688 -15.078125 31.703125 -14.734375 C 31.941406 -14.191406 32.195312 -13.625 32.46875 -13.03125 C 32.75 -12.4375 33.007812 -11.84375 33.25 -11.25 C 33.351562 -11.0625 33.40625 -10.914062 33.40625 -10.8125 C 33.84375 -9.476562 34.410156 -8.195312 35.109375 -6.96875 C 35.453125 -6.320312 35.757812 -5.703125 36.03125 -5.109375 C 36.300781 -4.515625 36.5625 -3.898438 36.8125 -3.265625 C 37.050781 -2.617188 37.195312 -1.953125 37.25 -1.265625 C 37.300781 -0.816406 37.082031 -0.492188 36.59375 -0.296875 C 36.238281 -0.0976562 35.851562 0.0078125 35.4375 0.03125 C 35.019531 0.0625 34.585938 0.0976562 34.140625 0.140625 C 33.398438 0.191406 32.671875 0.253906 31.953125 0.328125 C 31.242188 0.398438 30.515625 0.460938 29.765625 0.515625 C 29.273438 0.566406 28.769531 0.578125 28.25 0.546875 C 27.738281 0.523438 27.234375 0.515625 26.734375 0.515625 C 26.335938 0.421875 26.039062 0.222656 25.84375 -0.078125 C 25.445312 -0.765625 25.078125 -1.453125 24.734375 -2.140625 C 24.390625 -2.835938 24.070312 -3.554688 23.78125 -4.296875 C 23.625 -4.691406 23.4375 -5.0625 23.21875 -5.40625 C 23 -5.75 22.765625 -6.09375 22.515625 -6.4375 C 22.222656 -6.988281 21.914062 -7.519531 21.59375 -8.03125 C 21.269531 -8.550781 20.957031 -9.082031 20.65625 -9.625 C 20.414062 -10.125 20.195312 -10.609375 20 -11.078125 C 19.800781 -11.546875 19.578125 -12.023438 19.328125 -12.515625 C 19.234375 -12.816406 19.125 -13.101562 19 -13.375 C 18.875 -13.644531 18.757812 -13.898438 18.65625 -14.140625 C 18.613281 -14.441406 18.421875 -14.566406 18.078125 -14.515625 C 17.578125 -14.460938 17.078125 -14.425781 16.578125 -14.40625 C 16.085938 -14.382812 15.570312 -14.347656 15.03125 -14.296875 C 14.738281 -14.242188 14.566406 -14.191406 14.515625 -14.140625 C 14.460938 -14.097656 14.4375 -13.925781 14.4375 -13.625 C 14.488281 -11.5 14.515625 -9.347656 14.515625 -7.171875 C 14.515625 -5.003906 14.515625 -2.835938 14.515625 -0.671875 L 14.515625 0.140625 C 14.421875 0.492188 14.222656 0.671875 13.921875 0.671875 C 12.984375 0.765625 12.007812 0.859375 11 0.953125 C 9.988281 1.054688 8.988281 1.082031 8 1.03125 C 7.507812 1.03125 6.988281 1.039062 6.4375 1.0625 C 5.894531 1.09375 5.351562 1.109375 4.8125 1.109375 C 4.269531 1.160156 4 0.9375 4 0.4375 L 4 -8.734375 Z M 14.59375 -33.1875 L 14.59375 -30.359375 C 14.539062 -29.472656 14.5 -28.570312 14.46875 -27.65625 C 14.445312 -26.75 14.4375 -25.847656 14.4375 -24.953125 C 14.4375 -24.609375 14.460938 -24.410156 14.515625 -24.359375 C 14.566406 -24.316406 14.738281 -24.296875 15.03125 -24.296875 L 18 -24.296875 C 18.195312 -24.296875 18.34375 -24.316406 18.4375 -24.359375 C 18.882812 -24.515625 19.328125 -24.648438 19.765625 -24.765625 C 20.210938 -24.890625 20.632812 -25.050781 21.03125 -25.25 C 21.726562 -25.644531 22.320312 -26.09375 22.8125 -26.59375 C 23.207031 -26.988281 23.515625 -27.441406 23.734375 -27.953125 C 23.960938 -28.472656 24.125 -28.984375 24.21875 -29.484375 C 24.414062 -30.316406 24.5 -31.164062 24.46875 -32.03125 C 24.445312 -32.894531 24.410156 -33.769531 24.359375 -34.65625 C 24.359375 -34.957031 24.347656 -35.242188 24.328125 -35.515625 C 24.304688 -35.785156 24.296875 -36.066406 24.296875 -36.359375 C 24.242188 -36.804688 24.128906 -37.210938 23.953125 -37.578125 C 23.785156 -37.953125 23.648438 -38.3125 23.546875 -38.65625 C 23.203125 -39.59375 22.660156 -40.382812 21.921875 -41.03125 C 21.328125 -41.71875 20.585938 -42.085938 19.703125 -42.140625 C 18.617188 -42.285156 17.507812 -42.285156 16.375 -42.140625 C 16.175781 -42.085938 15.953125 -42.0625 15.703125 -42.0625 C 15.453125 -42.0625 15.203125 -42.039062 14.953125 -42 C 14.710938 -42 14.59375 -41.847656 14.59375 -41.546875 Z M 14.59375 -33.1875 "/></g></g></g><g fill="#0cc0df" fill-opacity="1"><g transform="translate(174.767647, 108.549137)"><g><path d="M 39.03125 -27.546875 L 39.03125 -26 C 38.976562 -25.65625 38.953125 -25.285156 38.953125 -24.890625 C 38.953125 -24.492188 38.90625 -24.097656 38.8125 -23.703125 C 38.707031 -23.359375 38.65625 -23.023438 38.65625 -22.703125 C 38.65625 -22.378906 38.632812 -22.046875 38.59375 -21.703125 C 38.4375 -20.367188 38.1875 -19.070312 37.84375 -17.8125 C 37.5 -16.550781 37.128906 -15.28125 36.734375 -14 C 36.441406 -13.007812 36.097656 -12.046875 35.703125 -11.109375 C 35.304688 -10.171875 34.859375 -9.234375 34.359375 -8.296875 C 34.117188 -7.753906 33.820312 -7.222656 33.46875 -6.703125 C 33.125 -6.179688 32.78125 -5.648438 32.4375 -5.109375 C 32.039062 -4.460938 31.554688 -3.894531 30.984375 -3.40625 C 30.421875 -2.914062 29.820312 -2.445312 29.1875 -2 C 28.988281 -1.90625 28.800781 -1.78125 28.625 -1.625 C 28.445312 -1.476562 28.257812 -1.332031 28.0625 -1.1875 C 27.914062 -1.082031 27.769531 -0.976562 27.625 -0.875 C 27.476562 -0.78125 27.332031 -0.6875 27.1875 -0.59375 C 26.882812 -0.488281 26.597656 -0.375 26.328125 -0.25 C 26.054688 -0.132812 25.773438 -0.0234375 25.484375 0.078125 C 24.691406 0.472656 23.875 0.707031 23.03125 0.78125 C 22.195312 0.851562 21.359375 0.890625 20.515625 0.890625 C 19.523438 0.835938 18.535156 0.75 17.546875 0.625 C 16.566406 0.5 15.582031 0.289062 14.59375 0 C 13.457031 -0.289062 12.34375 -0.859375 11.25 -1.703125 C 11.101562 -1.804688 10.957031 -1.929688 10.8125 -2.078125 C 10.664062 -2.222656 10.492188 -2.34375 10.296875 -2.4375 C 10.148438 -2.59375 9.988281 -2.742188 9.8125 -2.890625 C 9.632812 -3.035156 9.472656 -3.179688 9.328125 -3.328125 C 7.398438 -5.503906 5.945312 -7.972656 4.96875 -10.734375 C 4.71875 -11.429688 4.476562 -12.132812 4.25 -12.84375 C 4.03125 -13.5625 3.875 -14.316406 3.78125 -15.109375 C 3.726562 -15.648438 3.6875 -16.191406 3.65625 -16.734375 C 3.632812 -17.273438 3.578125 -17.820312 3.484375 -18.375 C 3.484375 -18.519531 3.46875 -18.664062 3.4375 -18.8125 C 3.414062 -18.957031 3.40625 -19.101562 3.40625 -19.25 C 3.207031 -20.09375 3.082031 -20.945312 3.03125 -21.8125 C 2.988281 -22.675781 2.988281 -23.523438 3.03125 -24.359375 C 3.082031 -25.148438 3.132812 -25.925781 3.1875 -26.6875 C 3.238281 -27.457031 3.285156 -28.238281 3.328125 -29.03125 C 3.378906 -29.570312 3.429688 -30.140625 3.484375 -30.734375 C 3.535156 -31.328125 3.582031 -31.921875 3.625 -32.515625 C 3.769531 -33.898438 3.976562 -35.257812 4.25 -36.59375 C 4.53125 -37.925781 4.890625 -39.257812 5.328125 -40.59375 C 5.523438 -41.132812 5.707031 -41.675781 5.875 -42.21875 C 6.050781 -42.757812 6.265625 -43.273438 6.515625 -43.765625 C 6.910156 -44.460938 7.328125 -45.144531 7.765625 -45.8125 C 8.210938 -46.476562 8.6875 -47.128906 9.1875 -47.765625 C 9.625 -48.304688 10.125 -48.773438 10.6875 -49.171875 C 11.257812 -49.566406 11.796875 -49.960938 12.296875 -50.359375 C 12.984375 -50.898438 13.695312 -51.332031 14.4375 -51.65625 C 15.175781 -51.976562 15.941406 -52.265625 16.734375 -52.515625 C 17.273438 -52.710938 17.816406 -52.832031 18.359375 -52.875 C 18.910156 -52.925781 19.429688 -52.976562 19.921875 -53.03125 C 20.660156 -53.03125 21.398438 -53.039062 22.140625 -53.0625 C 22.878906 -53.09375 23.617188 -53.054688 24.359375 -52.953125 C 24.859375 -52.898438 25.328125 -52.8125 25.765625 -52.6875 C 26.210938 -52.570312 26.6875 -52.460938 27.1875 -52.359375 C 27.1875 -52.304688 27.195312 -52.28125 27.21875 -52.28125 C 27.238281 -52.28125 27.25 -52.28125 27.25 -52.28125 C 27.945312 -51.9375 28.613281 -51.613281 29.25 -51.3125 C 29.894531 -51.019531 30.515625 -50.675781 31.109375 -50.28125 C 31.648438 -49.9375 32.140625 -49.53125 32.578125 -49.0625 C 33.023438 -48.59375 33.421875 -48.113281 33.765625 -47.625 C 34.609375 -46.539062 35.328125 -45.414062 35.921875 -44.25 C 36.515625 -43.09375 36.929688 -41.847656 37.171875 -40.515625 C 37.367188 -39.722656 37.554688 -38.921875 37.734375 -38.109375 C 37.910156 -37.296875 38.070312 -36.46875 38.21875 -35.625 C 38.46875 -34.289062 38.675781 -32.957031 38.84375 -31.625 C 39.019531 -30.289062 39.082031 -28.929688 39.03125 -27.546875 Z M 12.734375 -25.328125 C 12.691406 -24.242188 12.707031 -23.132812 12.78125 -22 C 12.851562 -20.863281 12.988281 -19.726562 13.1875 -18.59375 C 13.332031 -17.695312 13.515625 -16.816406 13.734375 -15.953125 C 13.960938 -15.097656 14.273438 -14.25 14.671875 -13.40625 C 15.054688 -12.71875 15.53125 -12.125 16.09375 -11.625 C 16.664062 -11.132812 17.347656 -10.765625 18.140625 -10.515625 C 18.535156 -10.421875 18.941406 -10.332031 19.359375 -10.25 C 19.785156 -10.175781 20.195312 -10.09375 20.59375 -10 C 21.28125 -9.851562 21.957031 -9.863281 22.625 -10.03125 C 23.289062 -10.207031 23.921875 -10.46875 24.515625 -10.8125 C 25.003906 -11.0625 25.394531 -11.394531 25.6875 -11.8125 C 25.988281 -12.226562 26.238281 -12.6875 26.4375 -13.1875 C 26.882812 -14.414062 27.242188 -15.660156 27.515625 -16.921875 C 27.785156 -18.179688 28.019531 -19.425781 28.21875 -20.65625 C 28.3125 -21.207031 28.382812 -21.773438 28.4375 -22.359375 C 28.488281 -22.953125 28.515625 -23.546875 28.515625 -24.140625 C 28.566406 -25.078125 28.601562 -26.015625 28.625 -26.953125 C 28.644531 -27.890625 28.632812 -28.828125 28.59375 -29.765625 C 28.394531 -31.847656 27.972656 -34.023438 27.328125 -36.296875 C 26.878906 -37.671875 26.238281 -38.976562 25.40625 -40.21875 C 25.351562 -40.3125 25.300781 -40.394531 25.25 -40.46875 C 25.207031 -40.550781 25.132812 -40.613281 25.03125 -40.65625 C 23.75 -41.59375 22.367188 -42.039062 20.890625 -42 C 19.359375 -42 18.023438 -41.351562 16.890625 -40.0625 C 15.953125 -38.925781 15.195312 -37.703125 14.625 -36.390625 C 14.0625 -35.085938 13.601562 -33.722656 13.25 -32.296875 C 12.757812 -30.066406 12.585938 -27.742188 12.734375 -25.328125 Z M 12.734375 -25.328125 "/></g></g></g><g fill="#0cc0df" fill-opacity="1"><g transform="translate(22.031307, 109.168315)"><g><path d="M 12.734375 -26.734375 L 12.734375 -26.21875 C 12.734375 -24.289062 12.734375 -22.351562 12.734375 -20.40625 C 12.734375 -18.457031 12.710938 -16.519531 12.671875 -14.59375 C 12.671875 -13.351562 12.644531 -12.113281 12.59375 -10.875 C 12.539062 -9.644531 12.515625 -8.414062 12.515625 -7.1875 C 12.515625 -6.25 12.523438 -5.320312 12.546875 -4.40625 C 12.578125 -3.488281 12.617188 -2.5625 12.671875 -1.625 C 12.671875 -0.832031 12.375 -0.289062 11.78125 0 C 11.238281 0.25 10.617188 0.421875 9.921875 0.515625 C 9.035156 0.566406 8.144531 0.566406 7.25 0.515625 C 6.363281 0.460938 5.476562 0.414062 4.59375 0.375 C 3.945312 0.375 3.578125 0.0234375 3.484375 -0.671875 C 3.429688 -0.867188 3.40625 -1.039062 3.40625 -1.1875 C 3.40625 -1.332031 3.40625 -1.503906 3.40625 -1.703125 C 3.40625 -4.316406 3.414062 -6.96875 3.4375 -9.65625 C 3.46875 -12.351562 3.484375 -15.035156 3.484375 -17.703125 C 3.429688 -19.085938 3.390625 -20.484375 3.359375 -21.890625 C 3.335938 -23.296875 3.304688 -24.6875 3.265625 -26.0625 L 3.265625 -42.359375 C 3.265625 -43.347656 3.25 -44.3125 3.21875 -45.25 C 3.195312 -46.1875 3.1875 -47.125 3.1875 -48.0625 C 3.132812 -48.3125 3.09375 -48.554688 3.0625 -48.796875 C 3.039062 -49.046875 3.03125 -49.269531 3.03125 -49.46875 C 2.988281 -49.664062 2.96875 -49.863281 2.96875 -50.0625 C 2.96875 -50.257812 2.96875 -50.457031 2.96875 -50.65625 C 2.96875 -51.15625 3.085938 -51.5625 3.328125 -51.875 C 3.578125 -52.195312 3.875 -52.457031 4.21875 -52.65625 C 4.320312 -52.707031 4.492188 -52.734375 4.734375 -52.734375 L 8.515625 -52.734375 L 11.1875 -52.515625 C 11.78125 -52.410156 12.195312 -52.0625 12.4375 -51.46875 C 12.6875 -50.875 12.972656 -50.289062 13.296875 -49.71875 C 13.617188 -49.15625 13.878906 -48.582031 14.078125 -48 C 14.515625 -46.863281 15.015625 -45.75 15.578125 -44.65625 C 16.148438 -43.570312 16.6875 -42.488281 17.1875 -41.40625 C 18.019531 -39.675781 18.878906 -37.957031 19.765625 -36.25 C 20.660156 -34.550781 21.578125 -32.835938 22.515625 -31.109375 C 22.804688 -30.566406 23.085938 -30.007812 23.359375 -29.4375 C 23.640625 -28.875 23.953125 -28.320312 24.296875 -27.78125 C 24.785156 -26.832031 25.300781 -25.898438 25.84375 -24.984375 C 26.382812 -24.078125 26.90625 -23.15625 27.40625 -22.21875 C 27.40625 -22.164062 27.476562 -22.09375 27.625 -22 C 27.625 -22.09375 27.632812 -22.175781 27.65625 -22.25 C 27.6875 -22.320312 27.703125 -22.382812 27.703125 -22.4375 C 27.703125 -24.957031 27.703125 -27.488281 27.703125 -30.03125 C 27.703125 -32.570312 27.675781 -35.128906 27.625 -37.703125 C 27.625 -38.929688 27.570312 -40.148438 27.46875 -41.359375 C 27.375 -42.566406 27.300781 -43.789062 27.25 -45.03125 C 27.207031 -46.0625 27.1875 -47.109375 27.1875 -48.171875 C 27.1875 -49.234375 27.1875 -50.3125 27.1875 -51.40625 C 27.1875 -51.84375 27.457031 -52.1875 28 -52.4375 C 28.539062 -52.632812 29.15625 -52.734375 29.84375 -52.734375 C 30.488281 -52.679688 31.128906 -52.640625 31.765625 -52.609375 C 32.410156 -52.585938 33.054688 -52.554688 33.703125 -52.515625 C 33.992188 -52.515625 34.300781 -52.515625 34.625 -52.515625 C 34.945312 -52.515625 35.226562 -52.460938 35.46875 -52.359375 C 35.625 -52.359375 35.800781 -52.3125 36 -52.21875 C 36.34375 -52.0625 36.515625 -51.789062 36.515625 -51.40625 C 36.460938 -49.875 36.5 -48.328125 36.625 -46.765625 C 36.75 -45.210938 36.835938 -43.644531 36.890625 -42.0625 C 37.035156 -37.914062 37.109375 -33.722656 37.109375 -29.484375 C 37.148438 -27.054688 37.160156 -24.632812 37.140625 -22.21875 C 37.117188 -19.800781 37.128906 -17.378906 37.171875 -14.953125 C 37.171875 -13.429688 37.207031 -11.925781 37.28125 -10.4375 C 37.363281 -8.957031 37.425781 -7.453125 37.46875 -5.921875 C 37.46875 -5.234375 37.46875 -4.519531 37.46875 -3.78125 C 37.46875 -3.039062 37.492188 -2.320312 37.546875 -1.625 C 37.546875 -1.332031 37.421875 -1.015625 37.171875 -0.671875 C 36.585938 -0.0234375 35.925781 0.296875 35.1875 0.296875 C 34.789062 0.242188 34.394531 0.242188 34 0.296875 C 33.601562 0.347656 33.207031 0.394531 32.8125 0.4375 C 32.3125 0.4375 31.828125 0.445312 31.359375 0.46875 C 30.890625 0.5 30.410156 0.515625 29.921875 0.515625 C 29.722656 0.515625 29.5 0.441406 29.25 0.296875 C 29.15625 0.148438 29.03125 0.00390625 28.875 -0.140625 C 28.726562 -0.296875 28.609375 -0.445312 28.515625 -0.59375 C 28.023438 -1.4375 27.53125 -2.238281 27.03125 -3 C 26.539062 -3.757812 26.046875 -4.535156 25.546875 -5.328125 C 25.347656 -5.773438 25.140625 -6.21875 24.921875 -6.65625 C 24.703125 -7.101562 24.46875 -7.578125 24.21875 -8.078125 C 23.875 -8.816406 23.453125 -9.53125 22.953125 -10.21875 C 22.460938 -10.90625 21.972656 -11.625 21.484375 -12.375 C 21.035156 -13.0625 20.597656 -13.738281 20.171875 -14.40625 C 19.753906 -15.070312 19.328125 -15.75 18.890625 -16.4375 C 18.296875 -17.425781 17.703125 -18.414062 17.109375 -19.40625 C 16.515625 -20.394531 15.945312 -21.378906 15.40625 -22.359375 C 15.007812 -23.054688 14.578125 -23.75 14.109375 -24.4375 C 13.640625 -25.132812 13.257812 -25.875 12.96875 -26.65625 C 12.96875 -26.707031 12.953125 -26.734375 12.921875 -26.734375 C 12.898438 -26.734375 12.890625 -26.757812 12.890625 -26.8125 C 12.835938 -26.8125 12.8125 -26.796875 12.8125 -26.765625 C 12.8125 -26.742188 12.785156 -26.734375 12.734375 -26.734375 Z M 12.734375 -26.734375 "/></g></g></g></svg>